<?xml version="1.0" standalone="no"?>
<!DOCTYPE svg PUBLIC "-//W3C//DTD SVG 20010904//EN"
 "http://www.w3.org/TR/2001/REC-SVG-20010904/DTD/svg10.dtd">
<svg version="1.0" xmlns="http://www.w3.org/2000/svg"
 width="269.000000pt" height="254.000000pt" viewBox="0 0 269.000000 254.000000"
 preserveAspectRatio="xMidYMid meet">
<metadata>
Created by potrace 1.16, written by Peter Selinger 2001-2019
</metadata>
<g transform="translate(0.000000,254.000000) scale(0.100000,-0.100000)"
fill="#000000" stroke="none">
<path d="M545 2322 c-57 -27 -143 -117 -157 -165 -10 -33 -9 -47 4 -85 l17
-46 -51 -60 c-116 -139 -173 -322 -149 -482 49 -331 330 -691 761 -973 132
-87 197 -122 334 -181 210 -90 343 -121 529 -121 203 0 351 56 473 177 119
118 183 278 184 457 1 368 -289 864 -670 1146 -350 260 -700 357 -1029 287
l-63 -14 -37 33 c-47 43 -93 51 -146 27z m527 -386 c449 -87 906 -520 1022
-970 31 -119 34 -224 8 -276 -10 -21 -34 -45 -62 -60 -42 -23 -54 -25 -180
-25 -129 1 -140 3 -243 38 -417 143 -862 503 -1012 819 -91 193 -56 319 105
379 43 16 78 38 105 66 39 40 41 41 112 42 39 1 104 -5 145 -13z"/>
</g>
</svg>
