<?xml version="1.0" standalone="no"?>
<!DOCTYPE svg PUBLIC "-//W3C//DTD SVG 20010904//EN"
 "http://www.w3.org/TR/2001/REC-SVG-20010904/DTD/svg10.dtd">
<svg version="1.0" xmlns="http://www.w3.org/2000/svg"
 width="229.000000pt" height="279.000000pt" viewBox="0 0 229.000000 279.000000"
 preserveAspectRatio="xMidYMid meet">
<metadata>
Created by potrace 1.16, written by Peter Selinger 2001-2019
</metadata>
<g transform="translate(0.000000,279.000000) scale(0.100000,-0.100000)"
fill="#000000" stroke="none">
<path d="M905 2568 c-50 -26 -134 -113 -284 -293 -322 -386 -421 -523 -421
-582 0 -51 25 -95 85 -152 48 -46 58 -51 99 -51 39 0 53 6 104 50 33 27 122
120 198 207 75 87 145 166 155 177 16 18 18 15 44 -70 114 -384 224 -682 370
-1003 37 -83 52 -127 45 -131 -6 -4 -50 -13 -98 -20 -298 -44 -531 -143 -618
-261 -33 -46 -36 -54 -30 -96 8 -62 45 -125 78 -137 22 -8 41 -3 105 26 101
47 186 74 309 99 137 27 470 37 654 18 217 -22 226 -21 269 27 54 61 109 162
117 211 9 60 -16 123 -59 148 -26 16 -56 20 -160 23 -120 4 -129 6 -143 27
-26 40 -189 394 -247 535 -123 302 -245 667 -331 996 -56 211 -57 215 -96 247
-39 33 -88 35 -145 5z"/>
</g>
</svg>
