<?xml version="1.0" standalone="no"?>
<!DOCTYPE svg PUBLIC "-//W3C//DTD SVG 20010904//EN"
 "http://www.w3.org/TR/2001/REC-SVG-20010904/DTD/svg10.dtd">
<svg version="1.0" xmlns="http://www.w3.org/2000/svg"
 width="279.000000pt" height="271.000000pt" viewBox="0 0 279.000000 271.000000"
 preserveAspectRatio="xMidYMid meet">
<metadata>
Created by potrace 1.16, written by Peter Selinger 2001-2019
</metadata>
<g transform="translate(0.000000,271.000000) scale(0.100000,-0.100000)"
fill="#000000" stroke="none">
<path d="M903 2500 c-168 -21 -288 -64 -422 -150 -258 -165 -341 -413 -220
-658 33 -68 59 -102 137 -181 100 -101 296 -256 343 -273 36 -13 85 9 144 63
107 99 114 218 16 269 -60 30 -185 135 -231 193 -150 187 -111 296 123 342
225 44 506 11 702 -84 86 -42 176 -114 200 -162 61 -117 -70 -277 -445 -547
-47 -34 -123 -89 -170 -123 -298 -216 -521 -414 -564 -501 -39 -78 -33 -138
19 -200 13 -16 43 -65 66 -109 45 -86 77 -119 117 -119 13 0 63 17 111 39 105
47 274 96 401 115 132 20 390 14 540 -12 136 -25 346 -92 484 -156 116 -54
149 -57 199 -17 37 29 101 101 116 130 18 34 22 81 11 123 -10 36 -35 66 -159
188 -81 80 -173 173 -205 207 -46 50 -64 63 -88 63 -40 0 -75 -20 -125 -72
-44 -45 -63 -83 -63 -124 0 -29 6 -29 -88 -5 -149 38 -305 54 -457 46 -77 -3
-164 -10 -192 -14 -29 -4 -53 -4 -53 1 0 9 139 113 293 218 593 405 792 797
561 1110 -88 120 -317 266 -524 334 -179 59 -417 86 -577 66z"/>
</g>
</svg>
