<?xml version="1.0" standalone="no"?>
<!DOCTYPE svg PUBLIC "-//W3C//DTD SVG 20010904//EN"
 "http://www.w3.org/TR/2001/REC-SVG-20010904/DTD/svg10.dtd">
<svg version="1.0" xmlns="http://www.w3.org/2000/svg"
 width="294.000000pt" height="261.000000pt" viewBox="0 0 294.000000 261.000000"
 preserveAspectRatio="xMidYMid meet">
<metadata>
Created by potrace 1.16, written by Peter Selinger 2001-2019
</metadata>
<g transform="translate(0.000000,261.000000) scale(0.100000,-0.100000)"
fill="#000000" stroke="none">
<path d="M357 2399 c-36 -10 -124 -84 -142 -120 -34 -64 -9 -169 49 -208 86
-59 288 -291 392 -451 25 -37 36 -46 65 -48 68 -6 157 85 166 169 4 36 -1 55
-31 110 l-35 66 202 7 c111 3 229 9 262 12 l60 5 -75 -67 c-41 -37 -145 -138
-231 -224 -169 -170 -198 -214 -186 -285 8 -49 89 -161 122 -169 17 -4 59 4
118 23 187 60 407 84 637 69 272 -17 487 -94 580 -207 69 -83 62 -158 -22
-247 -201 -212 -613 -274 -1013 -151 -234 72 -471 197 -663 351 -83 65 -93 70
-142 66 -42 -3 -113 -61 -152 -125 -18 -30 -25 -116 -12 -150 11 -29 214 -194
344 -280 386 -256 772 -368 1149 -334 282 26 528 132 705 304 166 161 236 305
236 486 0 148 -46 254 -160 368 -112 113 -283 197 -495 246 -101 24 -285 44
-395 45 -52 0 -101 4 -108 8 -9 6 51 59 190 169 230 182 297 247 323 316 15
41 16 53 6 89 -16 53 -58 95 -105 103 -21 4 -97 -2 -189 -15 -333 -48 -477
-62 -702 -67 -186 -4 -251 -2 -335 11 -138 22 -223 48 -291 89 -68 41 -85 46
-122 36z"/>
</g>
</svg>
