<?xml version="1.0" standalone="no"?>
<!DOCTYPE svg PUBLIC "-//W3C//DTD SVG 20010904//EN"
 "http://www.w3.org/TR/2001/REC-SVG-20010904/DTD/svg10.dtd">
<svg version="1.0" xmlns="http://www.w3.org/2000/svg"
 width="237.000000pt" height="280.000000pt" viewBox="0 0 237.000000 280.000000"
 preserveAspectRatio="xMidYMid meet">
<metadata>
Created by potrace 1.16, written by Peter Selinger 2001-2019
</metadata>
<g transform="translate(0.000000,280.000000) scale(0.100000,-0.100000)"
fill="#000000" stroke="none">
<path d="M1250 2558 c-71 -47 -116 -104 -126 -157 -36 -194 -282 -548 -679
-976 -229 -247 -252 -284 -243 -389 5 -65 88 -213 127 -227 15 -6 77 -6 165 1
78 5 235 17 351 25 279 21 411 32 585 49 98 10 148 12 157 5 6 -6 17 -27 24
-47 23 -72 251 -597 266 -614 42 -47 121 -20 203 68 59 65 87 142 72 196 -5
18 -44 120 -86 225 -43 106 -75 197 -71 203 3 5 22 10 41 10 20 0 44 5 55 10
44 24 85 157 73 237 -5 37 -16 57 -44 86 l-38 37 -125 0 c-121 0 -125 1 -130
23 -3 12 -46 130 -96 262 -156 409 -241 682 -275 879 -19 109 -39 136 -102
136 -32 0 -56 -9 -104 -42z m19 -820 c12 -40 54 -160 92 -266 38 -106 69 -197
69 -202 0 -10 -52 -17 -220 -30 -74 -6 -155 -12 -180 -15 -25 -2 -103 -7 -175
-11 l-130 -7 21 24 c11 13 65 74 120 135 106 119 179 205 293 352 40 50 76 92
80 92 4 0 17 -33 30 -72z"/>
</g>
</svg>
