<?xml version="1.0" standalone="no"?>
<!DOCTYPE svg PUBLIC "-//W3C//DTD SVG 20010904//EN"
 "http://www.w3.org/TR/2001/REC-SVG-20010904/DTD/svg10.dtd">
<svg version="1.0" xmlns="http://www.w3.org/2000/svg"
 width="312.000000pt" height="304.000000pt" viewBox="0 0 312.000000 304.000000"
 preserveAspectRatio="xMidYMid meet">
<metadata>
Created by potrace 1.16, written by Peter Selinger 2001-2019
</metadata>
<g transform="translate(0.000000,304.000000) scale(0.100000,-0.100000)"
fill="#000000" stroke="none">
<path d="M339 2812 c-77 -50 -139 -145 -139 -214 0 -51 23 -84 122 -177 233
-219 481 -605 568 -886 48 -155 61 -187 86 -212 33 -33 81 -30 135 8 178 124
282 175 422 207 92 20 355 23 442 3 211 -47 381 -133 478 -241 122 -136 120
-265 -7 -392 -92 -92 -243 -167 -411 -204 -117 -26 -345 -23 -485 5 -322 67
-747 258 -938 423 -35 30 -79 36 -127 18 -34 -13 -111 -94 -137 -143 -36 -72
-13 -177 47 -211 11 -6 87 -59 170 -117 193 -138 290 -196 450 -274 484 -235
960 -266 1331 -85 389 189 621 571 565 929 -38 241 -207 442 -488 580 -192 95
-334 130 -558 137 -229 8 -414 -27 -614 -117 -35 -16 -69 -29 -76 -29 -7 0
-33 44 -59 98 -26 53 -79 150 -118 215 -38 65 -68 120 -66 121 2 2 64 -6 138
-17 119 -18 193 -20 615 -22 264 0 494 -2 512 -3 19 -1 47 -15 73 -37 73 -61
128 -41 203 73 85 127 83 227 -7 316 -65 65 -92 70 -386 65 -411 -6 -766 -2
-900 10 -266 25 -557 102 -685 181 -47 29 -102 26 -156 -8z"/>
</g>
</svg>
