<?xml version="1.0" standalone="no"?>
<!DOCTYPE svg PUBLIC "-//W3C//DTD SVG 20010904//EN"
 "http://www.w3.org/TR/2001/REC-SVG-20010904/DTD/svg10.dtd">
<svg version="1.0" xmlns="http://www.w3.org/2000/svg"
 width="262.000000pt" height="280.000000pt" viewBox="0 0 262.000000 280.000000"
 preserveAspectRatio="xMidYMid meet">
<metadata>
Created by potrace 1.16, written by Peter Selinger 2001-2019
</metadata>
<g transform="translate(0.000000,280.000000) scale(0.100000,-0.100000)"
fill="#000000" stroke="none">
<path d="M1064 2586 c-160 -36 -326 -137 -480 -290 -427 -427 -499 -1043 -183
-1553 88 -140 250 -300 387 -380 76 -45 221 -103 306 -123 267 -63 523 -40
753 70 118 56 196 112 293 209 190 192 273 379 273 616 0 104 -3 130 -27 200
-83 243 -274 416 -538 487 -69 19 -108 22 -233 22 -131 0 -162 -4 -247 -27
-234 -65 -416 -174 -584 -349 -74 -77 -117 -134 -154 -207 -27 -54 -34 -46
-55 65 -37 192 -4 384 96 550 69 115 210 244 319 293 43 19 43 19 81 -1 33
-17 43 -18 74 -8 72 24 154 158 162 265 10 138 -80 197 -243 161z m636 -1156
c111 -21 207 -84 271 -177 42 -61 61 -119 61 -189 -1 -87 -30 -143 -123 -236
-120 -120 -270 -183 -459 -195 -107 -6 -210 7 -303 38 -95 33 -212 97 -268
147 -49 43 -51 48 -46 86 3 22 24 77 47 124 92 185 314 341 560 393 98 20 184
23 260 9z"/>
</g>
</svg>
