<?xml version="1.0" standalone="no"?>
<!DOCTYPE svg PUBLIC "-//W3C//DTD SVG 20010904//EN"
 "http://www.w3.org/TR/2001/REC-SVG-20010904/DTD/svg10.dtd">
<svg version="1.0" xmlns="http://www.w3.org/2000/svg"
 width="245.000000pt" height="300.000000pt" viewBox="0 0 245.000000 300.000000"
 preserveAspectRatio="xMidYMid meet">
<metadata>
Created by potrace 1.16, written by Peter Selinger 2001-2019
</metadata>
<g transform="translate(0.000000,300.000000) scale(0.100000,-0.100000)"
fill="#000000" stroke="none">
<path d="M1875 2793 c-36 -3 -478 -57 -700 -85 -49 -6 -175 -11 -280 -12 -214
-1 -304 13 -409 65 -94 46 -138 37 -213 -44 -55 -59 -73 -97 -73 -149 1 -64
30 -116 106 -188 96 -90 217 -230 347 -398 112 -145 131 -161 183 -148 36 10
119 90 144 140 42 88 27 138 -79 267 l-44 54 149 7 c158 8 332 25 556 54 76
10 140 15 144 11 4 -3 -16 -46 -44 -94 -245 -428 -365 -816 -379 -1223 -8
-249 18 -459 82 -655 73 -225 128 -248 272 -112 117 111 153 216 103 300 -66
112 -78 462 -25 750 31 168 105 403 187 597 53 125 164 344 229 450 122 201
143 275 99 348 -37 60 -70 72 -200 70 -63 -1 -133 -3 -155 -5z"/>
</g>
</svg>
