<?xml version="1.0" standalone="no"?>
<!DOCTYPE svg PUBLIC "-//W3C//DTD SVG 20010904//EN"
 "http://www.w3.org/TR/2001/REC-SVG-20010904/DTD/svg10.dtd">
<svg version="1.0" xmlns="http://www.w3.org/2000/svg"
 width="268.000000pt" height="296.000000pt" viewBox="0 0 268.000000 296.000000"
 preserveAspectRatio="xMidYMid meet">
<metadata>
Created by potrace 1.16, written by Peter Selinger 2001-2019
</metadata>
<g transform="translate(0.000000,296.000000) scale(0.100000,-0.100000)"
fill="#000000" stroke="none">
<path d="M1175 2744 c-476 -80 -924 -435 -968 -765 -14 -105 0 -189 48 -285
55 -113 156 -193 329 -263 l28 -12 -48 -42 c-159 -138 -232 -276 -241 -458 -6
-111 8 -175 64 -282 38 -72 138 -182 213 -234 218 -149 533 -221 848 -194 356
31 656 157 834 350 331 357 233 780 -236 1020 -43 22 -100 48 -127 57 -27 10
-49 20 -49 23 0 4 29 40 65 81 73 85 137 204 161 300 26 102 15 243 -25 345
-78 198 -258 331 -496 365 -97 13 -304 11 -400 -6z m410 -394 c74 -28 139 -90
154 -145 39 -148 -138 -324 -425 -421 -94 -32 -111 -34 -225 -34 -209 0 -374
35 -451 93 -67 51 -91 93 -85 149 13 147 259 298 592 362 116 22 128 23 260
21 99 -1 131 -6 180 -25z m-117 -999 c130 -25 236 -62 352 -121 124 -64 202
-127 240 -192 40 -69 38 -137 -5 -193 -53 -70 -207 -153 -350 -188 -181 -46
-430 -52 -615 -16 -295 57 -456 219 -381 385 63 139 292 282 527 328 95 19
119 19 232 -3z"/>
</g>
</svg>
