<?xml version="1.0" standalone="no"?>
<!DOCTYPE svg PUBLIC "-//W3C//DTD SVG 20010904//EN"
 "http://www.w3.org/TR/2001/REC-SVG-20010904/DTD/svg10.dtd">
<svg version="1.0" xmlns="http://www.w3.org/2000/svg"
 width="257.000000pt" height="315.000000pt" viewBox="0 0 257.000000 315.000000"
 preserveAspectRatio="xMidYMid meet">
<metadata>
Created by potrace 1.16, written by Peter Selinger 2001-2019
</metadata>
<g transform="translate(0.000000,315.000000) scale(0.100000,-0.100000)"
fill="#000000" stroke="none">
<path d="M1132 2938 c-400 -33 -804 -371 -902 -755 -27 -104 -34 -206 -21
-293 65 -418 462 -734 951 -757 274 -13 508 53 721 202 43 30 80 55 83 55 9 0
-16 -73 -48 -144 -82 -178 -271 -410 -439 -537 -45 -34 -123 -82 -174 -106
-109 -51 -128 -75 -121 -159 5 -59 49 -141 109 -206 31 -32 42 -38 78 -38 111
0 330 171 558 435 287 332 436 692 437 1055 0 160 -13 245 -64 400 -101 309
-282 544 -538 698 -195 117 -410 168 -630 150z m204 -409 c136 -34 295 -129
400 -241 93 -98 187 -259 201 -341 8 -52 -22 -129 -73 -186 -121 -135 -331
-211 -577 -211 -369 1 -632 148 -718 402 -60 176 28 378 215 497 162 102 355
130 552 80z"/>
</g>
</svg>
