<?xml version="1.0" standalone="no"?>
<!DOCTYPE svg PUBLIC "-//W3C//DTD SVG 20010904//EN"
 "http://www.w3.org/TR/2001/REC-SVG-20010904/DTD/svg10.dtd">
<svg version="1.0" xmlns="http://www.w3.org/2000/svg"
 width="289.000000pt" height="314.000000pt" viewBox="0 0 289.000000 314.000000"
 preserveAspectRatio="xMidYMid meet">
<metadata>
Created by potrace 1.16, written by Peter Selinger 2001-2019
</metadata>
<g transform="translate(0.000000,314.000000) scale(0.100000,-0.100000)"
fill="#000000" stroke="none">
<path d="M625 2924 c-40 -20 -78 -57 -132 -126 -72 -94 -72 -91 -4 -279 57
-157 76 -217 155 -484 59 -198 176 -711 176 -768 0 -19 -13 -26 -103 -51 -113
-33 -268 -91 -346 -131 -56 -28 -90 -68 -141 -168 -38 -73 -37 -97 11 -152 38
-43 70 -45 142 -9 117 60 466 162 479 141 8 -12 9 -37 13 -186 2 -63 6 -77 27
-97 20 -21 29 -23 50 -15 84 32 158 174 158 303 0 30 5 50 13 53 20 7 413 54
536 65 81 7 118 6 128 -1 7 -6 86 -102 175 -213 89 -110 212 -262 271 -336 60
-74 118 -154 128 -177 19 -41 70 -93 92 -93 54 0 169 145 218 274 31 83 22
114 -55 189 -59 58 -182 195 -402 448 -363 417 -1126 1345 -1373 1669 -126
166 -147 180 -216 144z m468 -1053 c145 -170 427 -514 424 -517 -2 -2 -381
-47 -411 -48 -16 -1 -21 11 -33 79 -21 127 -82 430 -109 543 -13 57 -24 107
-24 110 1 8 49 -45 153 -167z"/>
</g>
</svg>
