<?xml version="1.0" standalone="no"?>
<!DOCTYPE svg PUBLIC "-//W3C//DTD SVG 20010904//EN"
 "http://www.w3.org/TR/2001/REC-SVG-20010904/DTD/svg10.dtd">
<svg version="1.0" xmlns="http://www.w3.org/2000/svg"
 width="294.000000pt" height="252.000000pt" viewBox="0 0 294.000000 252.000000"
 preserveAspectRatio="xMidYMid meet">
<metadata>
Created by potrace 1.16, written by Peter Selinger 2001-2019
</metadata>
<g transform="translate(0.000000,252.000000) scale(0.100000,-0.100000)"
fill="#000000" stroke="none">
<path d="M405 2311 c-44 -11 -57 -19 -129 -89 -78 -74 -87 -98 -58 -157 35
-72 78 -113 139 -132 46 -15 62 -26 103 -78 74 -93 343 -500 467 -705 108
-179 293 -516 293 -534 0 -9 -101 -2 -216 16 -64 9 -74 8 -112 -11 -23 -12
-42 -25 -42 -30 0 -5 -18 -39 -39 -77 -60 -105 -59 -143 6 -216 58 -66 62 -69
131 -74 31 -3 95 -9 142 -14 157 -18 444 -12 581 11 392 66 703 204 900 399
99 97 132 147 155 235 49 183 -34 318 -271 437 -76 39 -215 86 -307 103 -46 9
-107 21 -136 26 l-53 11 42 49 c127 152 74 298 -146 404 -107 52 -251 96 -595
184 -388 99 -584 156 -718 210 -56 23 -103 41 -105 40 -1 -1 -16 -4 -32 -8z
m678 -561 c127 -26 321 -74 407 -102 85 -27 185 -77 174 -88 -11 -9 -116 -43
-199 -64 -81 -20 -298 -66 -301 -63 -1 1 -34 61 -74 132 -40 72 -83 147 -96
168 -14 20 -22 37 -19 37 4 0 52 -9 108 -20z m747 -655 c81 -7 236 -40 315
-67 96 -33 171 -75 222 -124 l48 -45 -25 -20 c-43 -33 -190 -100 -313 -141
-121 -40 -261 -71 -378 -83 l-65 -7 -59 99 c-32 54 -73 123 -90 153 -18 30
-55 95 -84 143 -28 49 -51 90 -51 93 0 10 356 10 480 -1z"/>
</g>
</svg>
