<?xml version="1.0" standalone="no"?>
<!DOCTYPE svg PUBLIC "-//W3C//DTD SVG 20010904//EN"
 "http://www.w3.org/TR/2001/REC-SVG-20010904/DTD/svg10.dtd">
<svg version="1.0" xmlns="http://www.w3.org/2000/svg"
 width="254.000000pt" height="244.000000pt" viewBox="0 0 254.000000 244.000000"
 preserveAspectRatio="xMidYMid meet">
<metadata>
Created by potrace 1.16, written by Peter Selinger 2001-2019
</metadata>
<g transform="translate(0.000000,244.000000) scale(0.100000,-0.100000)"
fill="#000000" stroke="none">
<path d="M1098 2230 c-9 -6 -44 -42 -77 -81 -55 -63 -61 -75 -61 -115 0 -25 7
-61 15 -81 8 -19 15 -39 15 -44 0 -5 -42 -9 -93 -9 -201 0 -379 -86 -524 -251
-70 -80 -136 -205 -153 -290 -18 -94 -14 -263 10 -347 96 -341 399 -666 726
-778 70 -24 94 -27 214 -28 124 0 143 2 238 31 199 62 361 141 577 281 190
123 294 226 340 337 41 96 -5 205 -86 205 -21 0 -44 -7 -52 -15 -30 -29 -305
-203 -432 -272 -409 -223 -639 -230 -896 -25 -207 164 -350 401 -351 581 -1
82 14 129 50 164 60 58 192 78 311 47 141 -36 335 -142 500 -272 55 -43 109
-78 120 -78 24 0 131 97 172 157 35 50 46 101 30 131 -6 12 -52 72 -102 134
-109 136 -255 353 -338 502 -33 60 -66 113 -73 118 -18 11 -59 10 -80 -2z"/>
</g>
</svg>
