<?xml version="1.0" standalone="no"?>
<!DOCTYPE svg PUBLIC "-//W3C//DTD SVG 20010904//EN"
 "http://www.w3.org/TR/2001/REC-SVG-20010904/DTD/svg10.dtd">
<svg version="1.0" xmlns="http://www.w3.org/2000/svg"
 width="287.000000pt" height="270.000000pt" viewBox="0 0 287.000000 270.000000"
 preserveAspectRatio="xMidYMid meet">
<metadata>
Created by potrace 1.16, written by Peter Selinger 2001-2019
</metadata>
<g transform="translate(0.000000,270.000000) scale(0.100000,-0.100000)"
fill="#000000" stroke="none">
<path d="M385 2489 c-49 -28 -131 -124 -168 -196 -36 -69 -14 -142 59 -195 86
-64 231 -239 370 -448 169 -253 593 -957 582 -965 -2 -1 -28 -10 -58 -19 -81
-26 -155 -65 -186 -97 -25 -26 -114 -233 -114 -265 0 -30 30 -72 64 -88 33
-15 37 -15 87 4 29 12 87 28 128 36 249 50 609 135 761 180 113 34 308 116
395 167 95 55 197 138 245 198 110 139 148 323 96 470 -44 125 -163 271 -311
382 -136 102 -440 237 -735 327 -671 203 -934 315 -1090 466 -48 46 -92 62
-125 43z m740 -748 c663 -204 928 -330 1116 -528 62 -65 113 -154 104 -182
-14 -44 -182 -134 -360 -191 -107 -34 -374 -100 -403 -100 -11 1 -28 25 -51
76 -51 111 -250 439 -487 802 -119 181 -121 186 -97 178 10 -3 90 -28 178 -55z"/>
</g>
</svg>
