<?xml version="1.0" standalone="no"?>
<!DOCTYPE svg PUBLIC "-//W3C//DTD SVG 20010904//EN"
 "http://www.w3.org/TR/2001/REC-SVG-20010904/DTD/svg10.dtd">
<svg version="1.0" xmlns="http://www.w3.org/2000/svg"
 width="250.000000pt" height="262.000000pt" viewBox="0 0 250.000000 262.000000"
 preserveAspectRatio="xMidYMid meet">
<metadata>
Created by potrace 1.16, written by Peter Selinger 2001-2019
</metadata>
<g transform="translate(0.000000,262.000000) scale(0.100000,-0.100000)"
fill="#000000" stroke="none">
<path d="M480 2402 c-47 -23 -130 -139 -137 -191 -6 -43 -1 -55 169 -430 44
-96 82 -186 85 -201 5 -26 3 -27 -49 -33 -29 -4 -69 -7 -88 -7 -88 0 -165 -50
-230 -148 -42 -64 -41 -116 3 -170 48 -60 55 -62 133 -47 38 7 119 16 179 19
61 4 131 9 156 12 l47 6 30 -79 c17 -43 60 -154 96 -246 36 -92 66 -171 66
-175 0 -5 -42 -20 -92 -35 -144 -40 -252 -85 -280 -115 -39 -41 -50 -85 -34
-130 30 -81 90 -193 114 -212 33 -26 56 -25 138 6 318 120 936 279 1317 339
137 21 186 71 189 189 3 101 -68 166 -179 166 -112 0 -335 -38 -644 -109 -97
-23 -182 -41 -190 -41 -9 0 -25 32 -42 83 -23 64 -96 255 -134 345 -4 9 11 12
58 12 109 0 403 -31 431 -46 47 -24 78 -18 120 27 49 51 110 172 110 217 0 42
-32 78 -81 92 -66 19 -491 49 -707 50 l-70 0 -59 148 c-32 81 -65 162 -72 180
l-14 34 32 -7 c114 -25 639 -206 877 -301 74 -30 142 -54 153 -54 54 0 161 86
229 185 62 91 39 116 -167 185 -87 29 -216 74 -288 100 -71 26 -193 70 -270
98 -342 122 -432 155 -625 226 -113 42 -214 76 -225 76 -11 0 -36 -8 -55 -18z"/>
</g>
</svg>
