<?xml version="1.0" standalone="no"?>
<!DOCTYPE svg PUBLIC "-//W3C//DTD SVG 20010904//EN"
 "http://www.w3.org/TR/2001/REC-SVG-20010904/DTD/svg10.dtd">
<svg version="1.0" xmlns="http://www.w3.org/2000/svg"
 width="253.000000pt" height="276.000000pt" viewBox="0 0 253.000000 276.000000"
 preserveAspectRatio="xMidYMid meet">
<metadata>
Created by potrace 1.16, written by Peter Selinger 2001-2019
</metadata>
<g transform="translate(0.000000,276.000000) scale(0.100000,-0.100000)"
fill="#000000" stroke="none">
<path d="M305 2498 c-101 -94 -113 -129 -80 -240 22 -76 54 -103 134 -112 96
-11 113 -21 193 -115 165 -191 371 -449 411 -513 l16 -26 -67 -11 c-185 -31
-214 -46 -274 -140 -53 -84 -39 -132 74 -256 l45 -49 89 28 c94 29 310 85 331
86 34 0 305 -607 388 -868 30 -95 72 -105 161 -39 33 24 83 69 112 100 42 46
52 62 52 91 0 49 -98 281 -273 648 l-66 137 52 10 c29 6 136 19 239 30 167 19
190 19 228 6 36 -13 45 -13 68 -1 44 23 89 77 118 140 54 119 41 190 -41 222
-79 30 -402 11 -757 -45 l-107 -17 -47 73 c-25 41 -96 142 -156 225 -61 84
-112 157 -114 163 -3 7 45 7 163 -1 93 -7 321 -20 508 -29 263 -12 347 -20
372 -32 45 -22 80 -10 135 47 55 57 118 182 118 233 0 46 -39 94 -88 106 -42
11 -219 28 -367 36 -404 22 -723 46 -940 71 -162 18 -385 61 -448 85 -83 33
-107 27 -182 -43z"/>
</g>
</svg>
