<?xml version="1.0" standalone="no"?>
<!DOCTYPE svg PUBLIC "-//W3C//DTD SVG 20010904//EN"
 "http://www.w3.org/TR/2001/REC-SVG-20010904/DTD/svg10.dtd">
<svg version="1.0" xmlns="http://www.w3.org/2000/svg"
 width="312.000000pt" height="268.000000pt" viewBox="0 0 312.000000 268.000000"
 preserveAspectRatio="xMidYMid meet">
<metadata>
Created by potrace 1.16, written by Peter Selinger 2001-2019
</metadata>
<g transform="translate(0.000000,268.000000) scale(0.100000,-0.100000)"
fill="#000000" stroke="none">
<path d="M815 2466 c-16 -7 -58 -43 -92 -79 -54 -56 -63 -71 -63 -102 0 -29 8
-45 35 -72 20 -20 34 -37 33 -38 -2 -1 -19 -10 -38 -20 -213 -108 -422 -358
-475 -570 -30 -119 -12 -302 39 -400 9 -17 16 -35 16 -41 0 -25 117 -194 188
-273 270 -298 659 -509 998 -542 287 -28 556 89 712 308 l30 43 135 -143 c149
-157 231 -249 256 -287 24 -37 43 -49 77 -50 54 0 156 90 198 177 30 62 31 67
28 101 -3 26 -27 57 -119 155 -174 184 -453 514 -453 537 0 6 163 37 287 56
18 3 46 -3 67 -12 l36 -17 49 33 c57 39 91 80 132 156 34 66 36 97 9 142 -49
79 -119 76 -705 -28 -121 -22 -337 -58 -480 -80 -296 -46 -322 -52 -358 -80
-39 -31 -97 -154 -97 -206 0 -35 6 -49 35 -79 40 -43 36 -43 220 -5 128 26
149 23 280 -39 97 -46 126 -75 132 -134 5 -38 2 -47 -25 -73 -56 -57 -220 -90
-358 -73 -428 53 -929 454 -994 795 -20 104 17 216 91 279 41 34 130 78 194
96 83 23 292 18 395 -10 121 -32 268 -91 469 -188 95 -45 185 -83 199 -83 27
0 82 52 109 103 9 18 37 57 63 87 75 89 92 118 92 158 0 29 -7 43 -34 68 -28
25 -55 36 -149 58 -326 75 -721 208 -986 331 -111 52 -139 58 -178 41z"/>
</g>
</svg>
