<?xml version="1.0" standalone="no"?>
<!DOCTYPE svg PUBLIC "-//W3C//DTD SVG 20010904//EN"
 "http://www.w3.org/TR/2001/REC-SVG-20010904/DTD/svg10.dtd">
<svg version="1.0" xmlns="http://www.w3.org/2000/svg"
 width="286.000000pt" height="288.000000pt" viewBox="0 0 286.000000 288.000000"
 preserveAspectRatio="xMidYMid meet">
<metadata>
Created by potrace 1.16, written by Peter Selinger 2001-2019
</metadata>
<g transform="translate(0.000000,288.000000) scale(0.100000,-0.100000)"
fill="#000000" stroke="none">
<path d="M393 2670 c-30 -7 -57 -27 -124 -90 -44 -42 -60 -76 -61 -127 -1 -43
19 -87 206 -462 115 -228 212 -425 217 -437 8 -22 3 -25 -89 -54 -112 -37
-152 -68 -188 -148 -28 -62 -30 -108 -8 -142 34 -51 88 -100 110 -100 13 0 80
23 151 50 139 55 180 63 194 40 9 -16 123 -255 154 -325 10 -22 51 -110 91
-196 41 -86 74 -161 74 -167 0 -6 14 -27 31 -47 52 -59 102 -43 217 68 61 59
82 94 82 135 0 16 -64 161 -150 341 -82 171 -150 318 -150 324 0 27 497 119
544 101 8 -3 65 -103 126 -222 62 -119 141 -269 175 -332 34 -63 124 -230 200
-370 76 -140 149 -267 163 -283 20 -20 35 -27 65 -27 34 0 46 7 96 57 73 73
129 183 137 269 7 61 6 62 -33 105 -64 70 -265 390 -441 704 -133 237 -361
691 -471 940 -167 375 -175 387 -255 360 -42 -15 -143 -108 -178 -163 -37 -59
-31 -79 114 -377 74 -154 138 -290 142 -302 8 -24 1 -26 -194 -58 -52 -8 -150
-29 -218 -46 -68 -17 -125 -29 -127 -27 -2 2 -46 91 -97 198 -52 107 -160 327
-241 487 -139 276 -150 294 -187 313 -22 11 -41 20 -42 19 -2 -1 -17 -4 -35
-9z"/>
</g>
</svg>
