<?xml version="1.0" standalone="no"?>
<!DOCTYPE svg PUBLIC "-//W3C//DTD SVG 20010904//EN"
 "http://www.w3.org/TR/2001/REC-SVG-20010904/DTD/svg10.dtd">
<svg version="1.0" xmlns="http://www.w3.org/2000/svg"
 width="259.000000pt" height="268.000000pt" viewBox="0 0 259.000000 268.000000"
 preserveAspectRatio="xMidYMid meet">
<metadata>
Created by potrace 1.16, written by Peter Selinger 2001-2019
</metadata>
<g transform="translate(0.000000,268.000000) scale(0.100000,-0.100000)"
fill="#000000" stroke="none">
<path d="M1715 2468 c-33 -5 -184 -31 -335 -58 -447 -79 -498 -85 -786 -100
-116 -6 -222 -16 -250 -25 -54 -16 -130 -82 -140 -121 -9 -37 13 -86 71 -156
49 -59 61 -68 99 -73 42 -7 233 10 497 43 l136 17 155 -165 c155 -165 308
-337 407 -460 148 -183 283 -353 336 -425 65 -88 135 -215 135 -245 0 -13 -18
-27 -57 -46 -54 -26 -67 -28 -178 -28 -99 0 -138 5 -220 27 -129 35 -333 136
-450 224 -103 77 -266 236 -314 305 -66 98 -126 96 -225 -6 -111 -115 -113
-162 -13 -296 192 -258 402 -437 650 -555 330 -157 622 -165 873 -26 204 114
329 386 269 588 -53 179 -219 385 -714 885 -151 153 -273 279 -270 281 2 2
100 20 218 40 229 38 249 45 286 108 31 53 47 146 31 184 -15 36 -70 85 -94
85 -9 0 -26 2 -37 4 -11 2 -47 0 -80 -6z"/>
</g>
</svg>
