<?xml version="1.0" standalone="no"?>
<!DOCTYPE svg PUBLIC "-//W3C//DTD SVG 20010904//EN"
 "http://www.w3.org/TR/2001/REC-SVG-20010904/DTD/svg10.dtd">
<svg version="1.0" xmlns="http://www.w3.org/2000/svg"
 width="243.000000pt" height="290.000000pt" viewBox="0 0 243.000000 290.000000"
 preserveAspectRatio="xMidYMid meet">
<metadata>
Created by potrace 1.16, written by Peter Selinger 2001-2019
</metadata>
<g transform="translate(0.000000,290.000000) scale(0.100000,-0.100000)"
fill="#000000" stroke="none">
<path d="M83 2852 c-69 -53 -71 -172 -7 -301 52 -106 60 -130 108 -341 106
-468 149 -677 167 -818 43 -342 59 -496 73 -704 17 -265 20 -273 96 -272 91 0
215 74 252 149 27 54 28 82 8 242 -35 282 -34 253 -7 253 102 0 383 -151 612
-329 187 -146 274 -239 335 -359 40 -79 65 -96 129 -90 116 11 194 111 188
239 -7 141 -55 205 -271 357 -329 233 -529 351 -676 397 -59 19 -85 35 -57 35
26 0 210 98 313 167 78 51 164 113 353 251 86 64 59 192 -41 192 -46 0 -60 -7
-137 -64 -111 -84 -280 -182 -513 -298 -131 -65 -253 -132 -273 -149 -39 -35
-37 -36 -59 56 -51 220 -208 777 -291 1030 -34 105 -122 295 -153 331 -40 46
-108 58 -149 26z"/>
</g>
</svg>
