<?xml version="1.0" standalone="no"?>
<!DOCTYPE svg PUBLIC "-//W3C//DTD SVG 20010904//EN"
 "http://www.w3.org/TR/2001/REC-SVG-20010904/DTD/svg10.dtd">
<svg version="1.0" xmlns="http://www.w3.org/2000/svg"
 width="313.000000pt" height="281.000000pt" viewBox="0 0 313.000000 281.000000"
 preserveAspectRatio="xMidYMid meet">
<metadata>
Created by potrace 1.16, written by Peter Selinger 2001-2019
</metadata>
<g transform="translate(0.000000,281.000000) scale(0.100000,-0.100000)"
fill="#000000" stroke="none">
<path d="M393 2595 c-35 -15 -144 -116 -174 -161 -10 -16 -19 -44 -19 -62 0
-30 34 -104 66 -142 26 -32 281 -450 426 -700 188 -325 307 -538 393 -705 l87
-170 -33 -25 c-94 -70 -115 -98 -138 -175 -19 -61 -21 -81 -12 -108 15 -46
115 -147 145 -147 13 0 61 18 107 39 85 40 293 119 449 171 304 102 658 169
927 175 164 4 178 9 233 95 39 61 81 188 73 221 -20 76 -60 94 -191 85 -347
-25 -778 -92 -1051 -162 -73 -19 -135 -33 -136 -32 -2 2 -29 53 -61 113 -60
116 -214 392 -269 485 -19 30 -73 123 -121 205 -173 299 -477 796 -567 928
-38 56 -71 87 -92 87 -5 -1 -24 -7 -42 -15z"/>
</g>
</svg>
