<?xml version="1.0" standalone="no"?>
<!DOCTYPE svg PUBLIC "-//W3C//DTD SVG 20010904//EN"
 "http://www.w3.org/TR/2001/REC-SVG-20010904/DTD/svg10.dtd">
<svg version="1.0" xmlns="http://www.w3.org/2000/svg"
 width="406.000000pt" height="294.000000pt" viewBox="0 0 406.000000 294.000000"
 preserveAspectRatio="xMidYMid meet">
<metadata>
Created by potrace 1.16, written by Peter Selinger 2001-2019
</metadata>
<g transform="translate(0.000000,294.000000) scale(0.100000,-0.100000)"
fill="#000000" stroke="none">
<path d="M1460 2724 c-33 -21 -98 -105 -111 -144 -12 -34 -14 -28 81 -240 48
-107 200 -469 200 -476 0 -2 -39 21 -87 51 -92 58 -410 249 -793 475 -124 73
-244 146 -267 162 -27 18 -54 28 -79 28 -33 0 -45 -8 -95 -59 -82 -84 -114
-153 -96 -207 4 -12 34 -42 66 -67 237 -186 573 -751 826 -1387 40 -102 85
-223 100 -270 60 -186 105 -206 205 -93 48 55 89 131 95 174 8 65 -63 242
-241 599 -116 231 -260 495 -313 568 -13 18 -21 35 -18 38 5 5 143 -86 332
-220 193 -136 448 -341 575 -463 36 -34 78 -67 94 -73 28 -10 32 -8 82 41 54
54 98 130 109 190 7 39 -5 75 -63 199 -62 132 -175 400 -170 405 13 13 291
-240 559 -507 427 -425 823 -862 1007 -1110 97 -129 123 -149 170 -124 46 24
110 111 163 222 64 132 78 198 55 259 -21 54 -26 59 -242 255 -499 454 -892
798 -1553 1363 -85 73 -220 191 -300 262 -80 72 -157 139 -171 148 -30 21 -87
22 -120 1z"/>
</g>
</svg>
