<?xml version="1.0" standalone="no"?>
<!DOCTYPE svg PUBLIC "-//W3C//DTD SVG 20010904//EN"
 "http://www.w3.org/TR/2001/REC-SVG-20010904/DTD/svg10.dtd">
<svg version="1.0" xmlns="http://www.w3.org/2000/svg"
 width="331.000000pt" height="295.000000pt" viewBox="0 0 331.000000 295.000000"
 preserveAspectRatio="xMidYMid meet">
<metadata>
Created by potrace 1.16, written by Peter Selinger 2001-2019
</metadata>
<g transform="translate(0.000000,295.000000) scale(0.100000,-0.100000)"
fill="#000000" stroke="none">
<path d="M1835 2736 c-58 -26 -145 -140 -145 -191 0 -36 -35 31 290 -550 144
-258 203 -365 273 -495 28 -52 77 -142 109 -200 32 -57 58 -109 58 -113 0 -5
-12 -1 -27 9 -157 104 -516 334 -668 429 -104 65 -242 151 -305 190 -143 89
-279 169 -630 370 -151 86 -295 172 -319 191 -74 57 -130 42 -198 -52 -75
-105 -87 -153 -56 -218 12 -25 31 -42 67 -59 92 -44 231 -218 423 -532 212
-347 524 -962 623 -1228 39 -103 93 -111 179 -26 27 27 64 78 82 114 50 102
46 116 -111 416 -73 140 -152 288 -175 329 -23 41 -68 122 -100 180 -32 58
-92 163 -132 233 -40 71 -73 131 -73 133 0 9 324 -201 590 -383 356 -242 1128
-827 1216 -920 25 -26 40 -33 70 -33 34 0 45 7 94 58 76 80 135 198 134 266 0
44 -9 66 -64 161 -330 574 -534 925 -675 1165 -93 157 -225 382 -293 500 -69
118 -130 222 -136 232 -8 13 -61 41 -70 38 -1 -1 -14 -7 -31 -14z"/>
</g>
</svg>
