<?xml version="1.0" standalone="no"?>
<!DOCTYPE svg PUBLIC "-//W3C//DTD SVG 20010904//EN"
 "http://www.w3.org/TR/2001/REC-SVG-20010904/DTD/svg10.dtd">
<svg version="1.0" xmlns="http://www.w3.org/2000/svg"
 width="255.000000pt" height="235.000000pt" viewBox="0 0 255.000000 235.000000"
 preserveAspectRatio="xMidYMid meet">
<metadata>
Created by potrace 1.16, written by Peter Selinger 2001-2019
</metadata>
<g transform="translate(0.000000,235.000000) scale(0.100000,-0.100000)"
fill="#000000" stroke="none">
<path d="M845 2144 c-217 -35 -369 -136 -396 -262 -10 -47 -22 -68 -68 -117
-134 -145 -181 -264 -181 -461 0 -251 164 -539 430 -753 272 -219 591 -342
890 -344 219 -1 385 49 544 166 270 199 356 548 221 898 -133 345 -419 631
-775 776 -184 74 -281 94 -470 98 -91 2 -178 1 -195 -1z m265 -360 c162 -30
329 -102 467 -201 190 -136 378 -393 428 -588 21 -83 19 -209 -4 -260 -85
-188 -486 -193 -877 -10 -268 125 -502 352 -575 559 -30 87 -28 193 5 261 31
62 94 124 165 159 30 16 57 38 66 55 8 16 20 31 27 34 29 12 221 6 298 -9z"/>
</g>
</svg>
