<?xml version="1.0" standalone="no"?>
<!DOCTYPE svg PUBLIC "-//W3C//DTD SVG 20010904//EN"
 "http://www.w3.org/TR/2001/REC-SVG-20010904/DTD/svg10.dtd">
<svg version="1.0" xmlns="http://www.w3.org/2000/svg"
 width="267.000000pt" height="278.000000pt" viewBox="0 0 267.000000 278.000000"
 preserveAspectRatio="xMidYMid meet">
<metadata>
Created by potrace 1.16, written by Peter Selinger 2001-2019
</metadata>
<g transform="translate(0.000000,278.000000) scale(0.100000,-0.100000)"
fill="#000000" stroke="none">
<path d="M309 2543 c-54 -49 -96 -111 -104 -156 -5 -27 -1 -47 16 -83 25 -48
45 -62 126 -83 100 -27 300 -271 609 -744 64 -99 118 -187 121 -196 4 -14 -10
-22 -73 -40 -91 -26 -121 -53 -171 -151 -43 -83 -42 -106 8 -168 62 -79 56
-79 383 14 28 8 53 11 57 7 24 -27 245 -458 314 -613 46 -105 68 -130 111
-130 74 0 204 169 204 265 0 45 -78 213 -216 466 -66 122 -69 138 -26 139 7 0
67 18 135 41 140 47 311 131 397 196 91 68 182 172 226 259 38 75 39 80 39
183 0 98 -2 110 -28 153 -54 93 -125 144 -292 214 -205 84 -414 142 -920 254
-415 92 -629 144 -738 181 -49 16 -99 29 -113 29 -14 0 -41 -16 -65 -37z m836
-508 c386 -85 639 -162 797 -241 90 -45 168 -105 168 -130 0 -48 -303 -180
-607 -263 l-73 -20 -11 22 c-25 47 -296 448 -375 555 -46 61 -78 112 -71 112
7 0 85 -16 172 -35z"/>
</g>
</svg>
