<?xml version="1.0" standalone="no"?>
<!DOCTYPE svg PUBLIC "-//W3C//DTD SVG 20010904//EN"
 "http://www.w3.org/TR/2001/REC-SVG-20010904/DTD/svg10.dtd">
<svg version="1.0" xmlns="http://www.w3.org/2000/svg"
 width="263.000000pt" height="269.000000pt" viewBox="0 0 263.000000 269.000000"
 preserveAspectRatio="xMidYMid meet">
<metadata>
Created by potrace 1.16, written by Peter Selinger 2001-2019
</metadata>
<g transform="translate(0.000000,269.000000) scale(0.100000,-0.100000)"
fill="#000000" stroke="none">
<path d="M614 2474 c-30 -15 -118 -114 -143 -161 -17 -32 -13 -85 8 -134 l19
-43 -44 -39 c-101 -89 -195 -249 -231 -393 -27 -110 -23 -287 10 -396 78 -257
254 -495 497 -670 104 -74 295 -168 410 -201 231 -67 462 -55 655 32 37 17 71
31 75 31 8 0 177 -140 284 -234 84 -74 114 -78 162 -22 64 74 125 260 102 311
-8 18 -160 142 -242 197 -6 4 2 33 21 75 45 99 63 167 70 263 17 271 -118 577
-367 830 -233 237 -504 373 -986 495 -94 23 -184 50 -202 59 -38 20 -58 20
-98 0z m471 -480 c115 -38 269 -113 361 -174 43 -29 124 -99 179 -154 152
-153 247 -309 290 -472 16 -63 20 -200 6 -222 -6 -10 -59 25 -211 140 -111 84
-216 161 -234 171 -34 19 -74 15 -114 -11 -31 -20 -109 -122 -127 -166 -28
-66 9 -115 193 -253 63 -46 112 -86 110 -87 -12 -10 -170 18 -253 44 -196 63
-362 164 -505 309 -148 149 -234 295 -261 444 -22 123 20 249 109 328 58 51
84 65 197 105 106 38 142 38 260 -2z"/>
</g>
</svg>
