<?xml version="1.0" standalone="no"?>
<!DOCTYPE svg PUBLIC "-//W3C//DTD SVG 20010904//EN"
 "http://www.w3.org/TR/2001/REC-SVG-20010904/DTD/svg10.dtd">
<svg version="1.0" xmlns="http://www.w3.org/2000/svg"
 width="329.000000pt" height="283.000000pt" viewBox="0 0 329.000000 283.000000"
 preserveAspectRatio="xMidYMid meet">
<metadata>
Created by potrace 1.16, written by Peter Selinger 2001-2019
</metadata>
<g transform="translate(0.000000,283.000000) scale(0.100000,-0.100000)"
fill="#000000" stroke="none">
<path d="M364 2620 c-29 -11 -89 -74 -130 -135 -46 -67 -45 -108 2 -179 21
-33 47 -59 65 -65 16 -6 43 -16 60 -23 66 -24 210 -200 406 -493 103 -155 253
-391 253 -400 0 -2 -19 -9 -42 -15 -120 -29 -146 -41 -183 -81 -53 -59 -97
-157 -89 -198 8 -40 64 -101 93 -101 11 0 87 13 168 29 82 16 169 32 195 35
l47 7 74 -148 c91 -182 211 -450 247 -552 42 -120 88 -131 182 -43 55 52 98
126 98 170 0 39 -31 119 -130 337 -45 99 -84 186 -87 193 -8 19 11 15 156 -28
370 -112 946 -377 1089 -501 51 -45 95 -40 146 14 23 23 54 69 71 102 25 50
29 72 30 136 0 67 -3 79 -27 111 -56 73 -467 256 -916 409 l-124 42 69 36
c231 121 382 304 391 472 5 88 -9 129 -66 186 -101 101 -452 227 -1032 369
-541 133 -771 206 -900 284 -69 41 -81 45 -116 30z m787 -604 c407 -104 650
-183 824 -266 114 -54 152 -84 135 -105 -37 -44 -197 -111 -383 -160 -126 -33
-317 -75 -341 -75 -6 0 -24 24 -40 53 -46 82 -191 310 -286 447 -102 148 -104
150 -92 150 5 0 87 -20 183 -44z"/>
</g>
</svg>
