<?xml version="1.0" standalone="no"?>
<!DOCTYPE svg PUBLIC "-//W3C//DTD SVG 20010904//EN"
 "http://www.w3.org/TR/2001/REC-SVG-20010904/DTD/svg10.dtd">
<svg version="1.0" xmlns="http://www.w3.org/2000/svg"
 width="325.000000pt" height="262.000000pt" viewBox="0 0 325.000000 262.000000"
 preserveAspectRatio="xMidYMid meet">
<metadata>
Created by potrace 1.16, written by Peter Selinger 2001-2019
</metadata>
<g transform="translate(0.000000,262.000000) scale(0.100000,-0.100000)"
fill="#000000" stroke="none">
<path d="M910 2409 c-351 -30 -631 -216 -695 -464 -23 -89 -19 -141 14 -211
108 -229 451 -381 1191 -530 96 -19 193 -39 215 -44 22 -5 78 -16 125 -25 274
-54 563 -138 703 -204 79 -38 163 -102 179 -137 10 -21 8 -28 -16 -53 -69 -72
-254 -121 -431 -116 -136 4 -236 23 -395 76 -260 86 -495 237 -607 392 -46 64
-50 67 -94 67 -67 0 -175 -104 -199 -193 -15 -51 -1 -91 66 -193 207 -315 736
-574 1172 -574 167 0 382 50 524 121 249 125 404 346 385 551 -17 193 -211
372 -527 486 -133 48 -372 108 -605 152 -55 11 -183 35 -285 54 -556 104 -865
203 -996 318 -69 61 -23 112 128 144 99 22 369 14 523 -15 148 -28 320 -74
434 -117 120 -45 139 -55 180 -98 45 -47 90 -49 148 -7 74 54 165 180 179 249
10 47 -13 100 -54 127 -71 46 -531 175 -763 214 -130 22 -308 41 -369 39 -19
0 -78 -4 -130 -9z"/>
</g>
</svg>
