<?xml version="1.0" standalone="no"?>
<!DOCTYPE svg PUBLIC "-//W3C//DTD SVG 20010904//EN"
 "http://www.w3.org/TR/2001/REC-SVG-20010904/DTD/svg10.dtd">
<svg version="1.0" xmlns="http://www.w3.org/2000/svg"
 width="261.000000pt" height="261.000000pt" viewBox="0 0 261.000000 261.000000"
 preserveAspectRatio="xMidYMid meet">
<metadata>
Created by potrace 1.16, written by Peter Selinger 2001-2019
</metadata>
<g transform="translate(0.000000,261.000000) scale(0.100000,-0.100000)"
fill="#000000" stroke="none">
<path d="M1985 2402 c-11 -2 -74 -21 -140 -42 -417 -133 -724 -193 -985 -192
-176 0 -262 15 -366 62 -39 17 -84 30 -107 30 -35 0 -46 -7 -102 -64 -66 -67
-91 -119 -80 -164 9 -39 96 -169 120 -181 11 -5 74 -20 140 -32 102 -20 151
-24 320 -24 110 0 218 3 240 7 l40 7 120 -172 c225 -321 534 -779 630 -932
111 -177 234 -384 260 -435 45 -88 104 -84 200 14 93 96 152 226 127 281 -12
25 -123 187 -325 470 -111 156 -212 292 -460 625 -92 123 -164 226 -160 227
244 57 542 159 584 199 15 14 39 53 54 86 48 108 23 204 -60 226 -17 5 -39 6
-50 4z"/>
</g>
</svg>
