<?xml version="1.0" standalone="no"?>
<!DOCTYPE svg PUBLIC "-//W3C//DTD SVG 20010904//EN"
 "http://www.w3.org/TR/2001/REC-SVG-20010904/DTD/svg10.dtd">
<svg version="1.0" xmlns="http://www.w3.org/2000/svg"
 width="288.000000pt" height="264.000000pt" viewBox="0 0 288.000000 264.000000"
 preserveAspectRatio="xMidYMid meet">
<metadata>
Created by potrace 1.16, written by Peter Selinger 2001-2019
</metadata>
<g transform="translate(0.000000,264.000000) scale(0.100000,-0.100000)"
fill="#000000" stroke="none">
<path d="M285 2388 c-55 -55 -85 -124 -85 -194 0 -78 175 -599 355 -1054 73
-186 228 -502 296 -604 84 -127 178 -219 270 -265 119 -60 203 -75 373 -68
249 11 500 93 723 239 58 38 78 47 84 36 4 -7 34 -51 66 -98 61 -90 89 -108
139 -96 75 19 168 175 169 281 l0 61 -150 237 c-459 727 -598 952 -807 1302
-110 185 -144 225 -185 225 -37 0 -94 -35 -136 -85 -84 -100 -83 -117 39 -352
168 -326 383 -714 559 -1007 58 -98 105 -181 105 -187 0 -16 -157 -86 -255
-114 -164 -47 -400 -49 -520 -4 -70 26 -147 96 -207 188 -92 140 -248 468
-378 791 -119 297 -245 650 -265 743 -10 47 -48 77 -96 77 -37 0 -48 -6 -94
-52z"/>
</g>
</svg>
