<?xml version="1.0" standalone="no"?>
<!DOCTYPE svg PUBLIC "-//W3C//DTD SVG 20010904//EN"
 "http://www.w3.org/TR/2001/REC-SVG-20010904/DTD/svg10.dtd">
<svg version="1.0" xmlns="http://www.w3.org/2000/svg"
 width="258.000000pt" height="292.000000pt" viewBox="0 0 258.000000 292.000000"
 preserveAspectRatio="xMidYMid meet">
<metadata>
Created by potrace 1.16, written by Peter Selinger 2001-2019
</metadata>
<g transform="translate(0.000000,292.000000) scale(0.100000,-0.100000)"
fill="#000000" stroke="none">
<path d="M1744 2692 c-65 -48 -122 -147 -124 -214 0 -25 20 -124 126 -628 19
-91 46 -221 59 -290 26 -135 107 -535 125 -614 20 -88 47 -112 -346 299 -483
503 -991 1059 -1086 1187 -52 69 -112 64 -191 -16 -73 -72 -107 -133 -107
-190 0 -44 4 -49 136 -198 75 -84 186 -209 247 -278 321 -361 852 -933 1127
-1214 96 -98 209 -214 251 -257 62 -65 82 -79 106 -79 72 0 191 119 262 262
59 116 59 143 6 343 -99 376 -171 671 -279 1145 -24 107 -65 287 -90 399 -26
112 -50 231 -55 264 -6 47 -14 66 -35 84 -37 32 -83 30 -132 -5z"/>
</g>
</svg>
