<?xml version="1.0" standalone="no"?>
<!DOCTYPE svg PUBLIC "-//W3C//DTD SVG 20010904//EN"
 "http://www.w3.org/TR/2001/REC-SVG-20010904/DTD/svg10.dtd">
<svg version="1.0" xmlns="http://www.w3.org/2000/svg"
 width="356.000000pt" height="306.000000pt" viewBox="0 0 356.000000 306.000000"
 preserveAspectRatio="xMidYMid meet">
<metadata>
Created by potrace 1.16, written by Peter Selinger 2001-2019
</metadata>
<g transform="translate(0.000000,306.000000) scale(0.100000,-0.100000)"
fill="#000000" stroke="none">
<path d="M2362 2839 c-59 -30 -132 -120 -132 -164 0 -18 16 -71 36 -117 113
-264 594 -1506 594 -1535 0 -2 -96 87 -213 199 -269 258 -839 792 -937 879
-41 36 -85 71 -97 78 -30 15 -88 14 -122 -4 -37 -19 -123 -114 -145 -160 -21
-44 -21 -49 39 -234 68 -213 196 -743 182 -757 -4 -5 -218 265 -413 521 -504
662 -616 817 -652 898 -22 50 -64 74 -109 62 -38 -9 -143 -119 -172 -178 -47
-96 -29 -130 318 -602 442 -600 777 -1031 1011 -1298 79 -91 87 -97 123 -97
32 0 47 8 94 53 97 90 163 212 178 324 5 41 -3 89 -39 245 -25 106 -61 267
-81 358 -19 91 -38 174 -42 185 -4 15 5 10 38 -19 139 -123 590 -571 897 -891
196 -203 362 -374 370 -378 53 -32 141 46 218 196 63 122 65 154 19 297 -98
301 -321 899 -490 1315 -43 105 -87 215 -100 245 -74 182 -201 482 -220 521
-13 25 -30 51 -38 57 -27 23 -71 24 -115 1z"/>
</g>
</svg>
