<?xml version="1.0" standalone="no"?>
<!DOCTYPE svg PUBLIC "-//W3C//DTD SVG 20010904//EN"
 "http://www.w3.org/TR/2001/REC-SVG-20010904/DTD/svg10.dtd">
<svg version="1.0" xmlns="http://www.w3.org/2000/svg"
 width="342.000000pt" height="272.000000pt" viewBox="0 0 342.000000 272.000000"
 preserveAspectRatio="xMidYMid meet">
<metadata>
Created by potrace 1.16, written by Peter Selinger 2001-2019
</metadata>
<g transform="translate(0.000000,272.000000) scale(0.100000,-0.100000)"
fill="#000000" stroke="none">
<path d="M321 2495 c-16 -14 -49 -56 -72 -93 -53 -83 -63 -151 -30 -194 21
-26 251 -232 401 -358 222 -187 432 -360 570 -470 85 -68 159 -126 163 -130 7
-6 -167 -634 -224 -808 -28 -85 -21 -120 40 -183 41 -43 52 -49 88 -49 55 0
151 50 203 106 53 58 79 115 101 229 42 207 112 476 123 473 6 -2 164 -105
351 -229 187 -124 392 -259 455 -301 63 -41 175 -115 249 -164 189 -126 194
-128 235 -114 81 26 202 189 232 312 16 63 16 68 -2 105 -15 31 -34 46 -94 77
-266 136 -805 448 -1126 651 -93 59 -170 108 -171 109 -2 1 6 49 18 107 24
124 70 408 99 611 23 163 18 197 -31 232 -52 36 -148 2 -194 -68 -18 -27 -100
-292 -160 -513 -21 -79 -44 -143 -50 -143 -27 0 -838 626 -1019 787 -59 53
-106 58 -155 18z"/>
</g>
</svg>
