<?xml version="1.0" standalone="no"?>
<!DOCTYPE svg PUBLIC "-//W3C//DTD SVG 20010904//EN"
 "http://www.w3.org/TR/2001/REC-SVG-20010904/DTD/svg10.dtd">
<svg version="1.0" xmlns="http://www.w3.org/2000/svg"
 width="334.000000pt" height="265.000000pt" viewBox="0 0 334.000000 265.000000"
 preserveAspectRatio="xMidYMid meet">
<metadata>
Created by potrace 1.16, written by Peter Selinger 2001-2019
</metadata>
<g transform="translate(0.000000,265.000000) scale(0.100000,-0.100000)"
fill="#000000" stroke="none">
<path d="M1664 2440 c-47 -19 -120 -127 -130 -193 -6 -37 3 -54 102 -199 132
-193 356 -549 349 -556 -14 -15 -1341 699 -1500 807 -22 15 -48 31 -58 34 -29
11 -79 -17 -127 -70 -60 -66 -93 -135 -93 -192 0 -42 3 -48 56 -96 91 -81 399
-273 770 -479 234 -130 290 -160 667 -356 129 -67 264 -138 300 -157 50 -26
71 -32 95 -27 44 10 85 45 125 108 19 30 38 55 41 56 4 0 15 -12 25 -27 9 -16
89 -123 176 -239 87 -116 158 -215 158 -219 0 -21 -422 24 -669 70 -289 55
-460 107 -516 157 -70 61 -122 54 -194 -28 -75 -85 -84 -112 -76 -223 8 -108
14 -125 53 -145 54 -28 600 -167 807 -206 365 -69 723 -79 885 -25 121 40 255
264 221 368 -7 20 -81 122 -164 226 -408 507 -510 634 -583 731 -199 260 -404
553 -525 749 -80 131 -124 160 -195 131z"/>
</g>
</svg>
