<?xml version="1.0" standalone="no"?>
<!DOCTYPE svg PUBLIC "-//W3C//DTD SVG 20010904//EN"
 "http://www.w3.org/TR/2001/REC-SVG-20010904/DTD/svg10.dtd">
<svg version="1.0" xmlns="http://www.w3.org/2000/svg"
 width="361.000000pt" height="263.000000pt" viewBox="0 0 361.000000 263.000000"
 preserveAspectRatio="xMidYMid meet">
<metadata>
Created by potrace 1.16, written by Peter Selinger 2001-2019
</metadata>
<g transform="translate(0.000000,263.000000) scale(0.100000,-0.100000)"
fill="#000000" stroke="none">
<path d="M375 2418 c-61 -33 -145 -137 -165 -204 -17 -55 4 -98 69 -142 56
-38 219 -204 302 -307 65 -81 209 -289 209 -302 0 -13 42 -51 60 -54 49 -10
136 65 179 154 39 81 23 131 -101 315 l-29 42 38 0 c21 0 88 -4 148 -9 61 -6
223 -13 360 -16 138 -4 251 -8 252 -9 2 -2 -54 -54 -124 -117 -475 -426 -711
-713 -879 -1064 -100 -211 -119 -278 -90 -333 20 -39 119 -130 150 -138 20 -5
61 7 154 44 391 154 696 216 1062 216 206 0 296 -8 480 -45 191 -39 472 -133
609 -204 105 -54 129 -52 197 19 67 69 147 225 148 290 2 85 26 69 -659 441
-242 132 -488 270 -553 311 -55 36 -92 42 -129 21 -25 -14 -76 -76 -108 -132
-56 -99 -42 -135 94 -240 56 -43 100 -79 99 -81 -2 -1 -75 -4 -163 -5 -257 -4
-483 -33 -754 -98 -47 -11 -86 -19 -88 -17 -2 1 29 45 69 97 229 301 521 581
1020 977 150 119 208 205 208 310 0 60 -30 110 -80 133 -30 14 -63 16 -250 10
-901 -29 -1439 11 -1613 119 -50 31 -88 37 -122 18z"/>
</g>
</svg>
