<?xml version="1.0" standalone="no"?>
<!DOCTYPE svg PUBLIC "-//W3C//DTD SVG 20010904//EN"
 "http://www.w3.org/TR/2001/REC-SVG-20010904/DTD/svg10.dtd">
<svg version="1.0" xmlns="http://www.w3.org/2000/svg"
 width="372.000000pt" height="305.000000pt" viewBox="0 0 372.000000 305.000000"
 preserveAspectRatio="xMidYMid meet">
<metadata>
Created by potrace 1.16, written by Peter Selinger 2001-2019
</metadata>
<g transform="translate(0.000000,305.000000) scale(0.100000,-0.100000)"
fill="#000000" stroke="none">
<path d="M860 2954 c-225 -41 -424 -139 -573 -283 -78 -74 -128 -145 -172
-241 -27 -59 -30 -74 -29 -170 0 -84 5 -116 23 -162 56 -142 182 -280 371
-405 63 -42 117 -78 120 -81 3 -2 -3 -9 -14 -16 -93 -56 -285 -234 -357 -333
-84 -113 -138 -269 -124 -357 35 -223 253 -435 550 -534 188 -63 407 -73 628
-28 182 37 396 122 512 202 22 15 58 40 81 55 22 16 73 58 113 95 l73 67 31
-18 c29 -17 85 -51 177 -110 19 -13 87 -54 150 -92 63 -39 165 -101 225 -138
265 -164 558 -335 574 -335 33 0 131 30 148 45 10 9 46 36 79 60 97 70 188
206 200 298 5 37 0 53 -46 137 -89 161 -303 502 -341 542 -28 30 -43 38 -71
38 -47 0 -145 -50 -203 -105 -45 -42 -47 -46 -43 -87 3 -26 21 -69 46 -110 49
-80 95 -169 90 -174 -2 -2 -40 18 -84 45 -186 112 -487 298 -589 364 -60 39
-111 71 -111 72 -1 0 7 34 17 75 22 84 26 225 9 292 -6 24 -21 67 -32 95 -12
29 -19 55 -16 58 10 11 218 73 218 66 0 -4 -9 -26 -20 -49 -24 -49 -24 -55 -5
-92 18 -35 66 -62 92 -54 187 62 384 277 454 496 39 122 25 142 -97 142 -92 0
-107 -4 -519 -128 -557 -168 -590 -180 -671 -238 -96 -68 -121 -173 -59 -238
50 -53 211 -65 340 -26 31 10 53 12 59 6 21 -21 19 -213 -3 -248 -5 -9 -70 24
-242 126 -129 76 -289 169 -356 207 -68 38 -123 72 -123 75 0 4 29 30 64 59
58 47 88 76 136 137 97 122 170 306 170 431 0 77 -27 188 -63 258 -59 114
-201 231 -339 281 -119 42 -305 54 -448 28z m106 -355 c146 -35 284 -132 334
-234 36 -73 35 -188 -2 -267 -34 -74 -95 -139 -163 -174 l-54 -29 -113 59
c-279 146 -435 264 -487 367 -36 72 -39 111 -12 155 51 83 169 130 337 133 61
1 133 -3 160 -10z m-50 -1158 c5 -4 63 -37 129 -71 153 -81 353 -195 477 -274
54 -33 106 -66 115 -71 10 -6 49 -30 86 -54 79 -51 80 -50 -31 -115 -187 -109
-393 -157 -588 -136 -234 24 -457 144 -532 285 -26 48 -20 132 11 182 38 60
118 134 221 203 94 64 97 65 112 51z"/>
</g>
</svg>
