<?xml version="1.0" standalone="no"?>
<!DOCTYPE svg PUBLIC "-//W3C//DTD SVG 20010904//EN"
 "http://www.w3.org/TR/2001/REC-SVG-20010904/DTD/svg10.dtd">
<svg version="1.0" xmlns="http://www.w3.org/2000/svg"
 width="283.000000pt" height="283.000000pt" viewBox="0 0 283.000000 283.000000"
 preserveAspectRatio="xMidYMid meet">
<metadata>
Created by potrace 1.16, written by Peter Selinger 2001-2019
</metadata>
<g transform="translate(0.000000,283.000000) scale(0.100000,-0.100000)"
fill="#000000" stroke="none">
<path d="M1505 2735 c-124 -38 -177 -70 -201 -121 -15 -31 -16 -65 -10 -307 3
-150 9 -324 12 -387 5 -111 4 -114 -13 -95 -10 11 -95 112 -189 225 -94 113
-190 222 -212 244 -70 67 -131 65 -243 -11 -88 -58 -109 -83 -124 -140 -24
-94 -27 -89 253 -408 65 -75 69 -80 46 -83 -21 -3 -233 21 -295 33 -13 3 -76
10 -139 16 -110 11 -117 11 -157 -9 -43 -23 -98 -83 -128 -142 -29 -55 -32
-148 -6 -197 38 -75 48 -79 243 -87 171 -6 305 -17 486 -40 l94 -11 -229 -215
c-277 -262 -297 -294 -239 -379 67 -97 248 -251 294 -251 24 0 88 74 200 235
104 147 275 368 306 394 14 12 19 7 45 -50 44 -98 125 -321 166 -454 102 -336
116 -374 147 -400 23 -20 41 -25 82 -25 107 0 212 47 289 129 50 53 64 95 53
161 -5 32 -140 421 -171 494 -7 16 -5 17 16 11 41 -13 236 -103 433 -201 103
-52 195 -94 204 -94 26 0 168 153 182 196 7 21 23 57 35 79 56 100 12 176
-150 257 -27 14 -214 94 -415 178 -201 83 -367 154 -370 157 -3 2 2 9 10 14
587 358 665 409 678 447 28 80 -62 256 -148 292 -61 25 -159 -24 -534 -271
-33 -22 -63 -39 -68 -39 -13 0 -7 371 9 583 14 178 14 179 -7 210 -12 18 -33
40 -47 51 -33 25 -124 30 -188 11z"/>
</g>
</svg>
