<?xml version="1.0" standalone="no"?>
<!DOCTYPE svg PUBLIC "-//W3C//DTD SVG 20010904//EN"
 "http://www.w3.org/TR/2001/REC-SVG-20010904/DTD/svg10.dtd">
<svg version="1.0" xmlns="http://www.w3.org/2000/svg"
 width="315.000000pt" height="298.000000pt" viewBox="0 0 315.000000 298.000000"
 preserveAspectRatio="xMidYMid meet">
<metadata>
Created by potrace 1.16, written by Peter Selinger 2001-2019
</metadata>
<g transform="translate(0.000000,298.000000) scale(0.100000,-0.100000)"
fill="#000000" stroke="none">
<path d="M1720 2890 c-202 -15 -434 -74 -630 -160 -307 -134 -605 -374 -778
-624 -104 -149 -153 -255 -199 -431 -22 -86 -26 -120 -26 -245 0 -154 13 -236
58 -375 112 -343 382 -638 754 -825 155 -77 410 -140 631 -154 231 -16 554 41
810 141 112 44 320 143 350 167 8 6 27 18 43 26 15 7 27 19 27 25 0 6 27 31
59 55 33 23 62 49 65 57 9 23 -22 71 -56 89 -44 23 -138 20 -189 -6 -131 -68
-419 -168 -574 -201 -127 -27 -373 -37 -494 -20 -291 42 -561 167 -778 362
-317 286 -410 715 -233 1071 154 311 510 593 847 673 134 31 149 34 249 40
181 12 375 -24 522 -97 236 -117 391 -312 473 -596 29 -99 32 -118 32 -267 1
-156 0 -163 -32 -255 -64 -187 -101 -228 -194 -216 -89 10 -172 89 -219 204
-20 51 -23 74 -22 207 0 112 6 180 22 267 30 159 29 175 -12 221 -86 97 -236
147 -456 152 -273 6 -485 -51 -636 -171 -178 -142 -255 -244 -305 -404 -20
-63 -24 -96 -24 -210 1 -128 2 -139 33 -215 66 -165 173 -291 302 -353 69 -34
82 -37 165 -37 100 0 155 16 240 71 63 40 171 152 217 225 20 31 40 59 46 62
5 4 19 -16 31 -44 54 -119 187 -256 304 -314 330 -163 773 146 903 630 25 90
27 117 28 280 1 198 -9 263 -65 417 -113 310 -346 556 -641 679 -92 38 -281
86 -373 94 -140 12 -172 12 -275 5z m-27 -1086 c33 -9 61 -24 64 -31 9 -24
-148 -361 -246 -529 -81 -137 -95 -142 -177 -58 -73 74 -119 144 -154 235 -40
104 -47 164 -25 228 28 86 79 131 190 168 56 18 271 11 348 -13z"/>
</g>
</svg>
