<?xml version="1.0" standalone="no"?>
<!DOCTYPE svg PUBLIC "-//W3C//DTD SVG 20010904//EN"
 "http://www.w3.org/TR/2001/REC-SVG-20010904/DTD/svg10.dtd">
<svg version="1.0" xmlns="http://www.w3.org/2000/svg"
 width="311.000000pt" height="382.000000pt" viewBox="0 0 311.000000 382.000000"
 preserveAspectRatio="xMidYMid meet">
<metadata>
Created by potrace 1.16, written by Peter Selinger 2001-2019
</metadata>
<g transform="translate(0.000000,382.000000) scale(0.100000,-0.100000)"
fill="#000000" stroke="none">
<path d="M1110 3610 c-61 -10 -145 -69 -217 -152 -30 -35 -31 -40 -26 -100 4
-54 44 -243 60 -284 3 -9 -2 -14 -12 -14 -35 0 -230 -63 -310 -100 -145 -66
-247 -149 -318 -258 -59 -90 -79 -154 -78 -252 1 -94 24 -153 94 -245 99 -129
252 -216 574 -329 327 -114 497 -176 503 -183 12 -13 191 -565 186 -571 -3 -3
-62 23 -131 57 -194 97 -347 213 -440 336 -61 80 -86 128 -109 204 -20 69 -31
81 -74 81 -51 0 -111 -32 -185 -100 -79 -72 -98 -114 -87 -186 18 -110 45
-182 169 -436 50 -102 109 -231 130 -285 32 -79 45 -102 71 -117 28 -16 36
-17 73 -6 73 21 197 131 197 173 0 13 2 26 5 29 3 3 35 -10 71 -29 96 -51 225
-106 339 -143 55 -18 105 -38 111 -44 11 -10 87 -239 115 -346 19 -72 110
-139 134 -100 4 6 21 8 39 5 28 -6 42 1 103 47 64 47 73 58 82 99 9 41 6 58
-24 155 -19 60 -35 109 -35 110 0 1 33 4 73 8 141 12 282 55 407 124 107 59
232 180 275 267 27 53 30 70 30 150 0 79 -4 97 -29 146 -34 68 -138 188 -226
262 -205 170 -546 342 -921 463 l-87 27 -92 293 c-51 161 -91 297 -89 302 6
17 208 -55 305 -109 160 -89 224 -165 224 -266 0 -44 4 -55 24 -68 55 -36 202
34 263 126 38 58 51 120 49 246 l-1 112 -35 36 c-161 166 -583 327 -915 348
l-39 2 -23 80 c-12 44 -37 148 -54 230 -17 83 -38 162 -45 176 -15 29 -47 38
-104 29z m-70 -892 c0 -2 36 -109 79 -238 44 -129 78 -236 76 -238 -2 -2 -61
17 -132 43 -323 116 -510 248 -456 324 30 43 124 77 293 104 29 5 140 8 140 5z
m950 -1265 c192 -103 361 -236 430 -341 38 -58 39 -89 3 -104 -33 -14 -353
-15 -397 -1 -27 8 -33 20 -69 124 -35 104 -127 390 -127 396 0 6 79 -30 160
-74z"/>
</g>
</svg>
