<?xml version="1.0" standalone="no"?>
<!DOCTYPE svg PUBLIC "-//W3C//DTD SVG 20010904//EN"
 "http://www.w3.org/TR/2001/REC-SVG-20010904/DTD/svg10.dtd">
<svg version="1.0" xmlns="http://www.w3.org/2000/svg"
 width="83.000000pt" height="106.000000pt" viewBox="0 0 83.000000 106.000000"
 preserveAspectRatio="xMidYMid meet">
<metadata>
Created by potrace 1.16, written by Peter Selinger 2001-2019
</metadata>
<g transform="translate(0.000000,106.000000) scale(0.100000,-0.100000)"
fill="#000000" stroke="none">
<path d="M345 967 c-108 -36 -191 -102 -230 -182 -62 -126 -10 -242 148 -325
34 -18 64 -34 66 -36 7 -6 -45 -77 -103 -141 -68 -74 -78 -108 -45 -153 13
-18 36 -38 51 -46 31 -16 88 -19 88 -4 0 6 9 10 19 10 60 0 201 107 292 220
122 152 162 335 101 460 -33 68 -108 147 -166 177 -61 31 -160 40 -221 20z"/>
</g>
</svg>
