<?xml version="1.0" standalone="no"?>
<!DOCTYPE svg PUBLIC "-//W3C//DTD SVG 20010904//EN"
 "http://www.w3.org/TR/2001/REC-SVG-20010904/DTD/svg10.dtd">
<svg version="1.0" xmlns="http://www.w3.org/2000/svg"
 width="285.000000pt" height="356.000000pt" viewBox="0 0 285.000000 356.000000"
 preserveAspectRatio="xMidYMid meet">
<metadata>
Created by potrace 1.16, written by Peter Selinger 2001-2019
</metadata>
<g transform="translate(0.000000,356.000000) scale(0.100000,-0.100000)"
fill="#000000" stroke="none">
<path d="M930 3460 c-19 -10 -44 -23 -55 -29 -23 -11 -118 -107 -132 -134 -9
-18 1 -158 14 -187 3 -8 6 -18 5 -21 -1 -4 8 -39 18 -78 11 -39 20 -73 20 -75
0 -2 -24 -9 -52 -16 -305 -65 -529 -214 -631 -420 -30 -61 -32 -72 -32 -170 0
-102 1 -107 38 -176 98 -183 249 -277 702 -434 247 -85 428 -150 430 -152 4
-8 185 -564 185 -570 0 -16 -28 -6 -125 43 -194 98 -364 227 -450 341 -52 69
-115 191 -115 223 0 36 -28 65 -63 65 -76 0 -231 -112 -267 -193 -34 -75 9
-220 148 -503 54 -109 116 -244 137 -299 21 -55 47 -108 58 -118 46 -41 141
-9 232 80 42 41 55 61 55 83 0 17 1 30 3 30 1 0 54 -26 117 -58 109 -55 259
-114 362 -143 55 -15 46 2 124 -244 55 -176 73 -215 101 -215 7 0 13 -4 13
-10 0 -13 47 -13 56 1 3 6 17 8 31 4 28 -7 83 22 146 77 60 52 64 90 22 220
-19 59 -35 109 -35 112 0 3 13 6 29 6 16 0 78 9 137 19 269 48 502 200 590
385 34 72 36 81 32 151 -7 106 -46 181 -155 295 -205 216 -519 391 -983 550
-69 24 -126 44 -128 45 -7 6 -182 574 -182 592 0 17 -7 18 111 -23 280 -97
436 -228 422 -354 -6 -52 15 -75 67 -73 81 4 179 69 225 151 21 36 29 70 37
147 15 145 8 188 -33 231 -98 101 -364 232 -598 294 -72 19 -263 50 -309 50
-35 0 -44 4 -52 23 -15 38 -69 258 -85 351 -9 48 -22 101 -30 117 -14 27 -20
29 -68 29 -31 -1 -66 -8 -87 -20z m17 -965 c84 -248 126 -385 121 -391 -7 -6
-307 110 -388 151 -152 77 -237 164 -212 219 14 32 91 71 175 91 80 19 191 33
236 31 34 -1 34 -1 68 -101z m903 -1162 c208 -111 366 -234 439 -344 73 -110
58 -122 -154 -127 -82 -1 -177 1 -210 5 l-60 8 -87 260 c-48 143 -87 263 -87
267 -1 12 45 -9 159 -69z"/>
</g>
</svg>
