<?xml version="1.0" standalone="no"?>
<!DOCTYPE svg PUBLIC "-//W3C//DTD SVG 20010904//EN"
 "http://www.w3.org/TR/2001/REC-SVG-20010904/DTD/svg10.dtd">
<svg version="1.0" xmlns="http://www.w3.org/2000/svg"
 width="215.000000pt" height="321.000000pt" viewBox="0 0 215.000000 321.000000"
 preserveAspectRatio="xMidYMid meet">
<metadata>
Created by potrace 1.16, written by Peter Selinger 2001-2019
</metadata>
<g transform="translate(0.000000,321.000000) scale(0.100000,-0.100000)"
fill="#000000" stroke="none">
<path d="M1677 2981 c-24 -25 -143 -196 -221 -316 -134 -206 -241 -376 -370
-590 -155 -256 -589 -1016 -738 -1294 -39 -71 -106 -223 -129 -291 -22 -64
-23 -100 -7 -155 6 -22 12 -44 12 -49 1 -5 25 -26 54 -47 l54 -37 76 32 c42
18 85 37 95 42 28 16 62 81 133 254 50 120 255 532 348 699 29 53 100 179 156
281 113 203 157 281 398 690 59 101 216 357 339 552 80 129 88 159 49 201 -41
44 -80 58 -156 56 -60 -2 -72 -5 -93 -28z"/>
</g>
</svg>
