<?xml version="1.0" standalone="no"?>
<!DOCTYPE svg PUBLIC "-//W3C//DTD SVG 20010904//EN"
 "http://www.w3.org/TR/2001/REC-SVG-20010904/DTD/svg10.dtd">
<svg version="1.0" xmlns="http://www.w3.org/2000/svg"
 width="269.000000pt" height="267.000000pt" viewBox="0 0 269.000000 267.000000"
 preserveAspectRatio="xMidYMid meet">
<metadata>
Created by potrace 1.16, written by Peter Selinger 2001-2019
</metadata>
<g transform="translate(0.000000,267.000000) scale(0.100000,-0.100000)"
fill="#000000" stroke="none">
<path d="M1155 2460 c-280 -41 -567 -184 -743 -369 -220 -233 -271 -476 -140
-669 73 -106 289 -275 438 -343 14 -6 33 -15 42 -20 34 -17 65 -8 148 43 99
60 110 70 110 95 0 10 24 41 53 69 57 53 73 91 55 130 -7 15 -63 49 -171 104
-184 93 -223 119 -289 185 -57 58 -72 93 -64 140 19 100 211 211 433 250 99
17 289 20 381 5 145 -24 372 -120 482 -205 99 -76 170 -171 170 -227 0 -38
-36 -84 -97 -125 -32 -22 -161 -100 -288 -173 -329 -192 -512 -317 -638 -439
-236 -228 -272 -402 -119 -572 58 -64 159 -139 187 -139 32 0 180 55 244 91
31 17 83 58 117 91 48 47 60 64 56 83 -5 30 -16 39 -67 55 -108 34 -165 79
-165 131 0 64 136 186 315 284 39 21 97 55 130 75 33 20 94 54 135 75 198 103
352 206 446 299 194 194 226 390 95 590 -152 232 -499 429 -843 480 -108 16
-323 19 -413 6z"/>
</g>
</svg>
