<?xml version="1.0" standalone="no"?>
<!DOCTYPE svg PUBLIC "-//W3C//DTD SVG 20010904//EN"
 "http://www.w3.org/TR/2001/REC-SVG-20010904/DTD/svg10.dtd">
<svg version="1.0" xmlns="http://www.w3.org/2000/svg"
 width="340.000000pt" height="323.000000pt" viewBox="0 0 340.000000 323.000000"
 preserveAspectRatio="xMidYMid meet">
<metadata>
Created by potrace 1.16, written by Peter Selinger 2001-2019
</metadata>
<g transform="translate(0.000000,323.000000) scale(0.100000,-0.100000)"
fill="#000000" stroke="none">
<path d="M1855 3022 c-138 -7 -358 -53 -500 -102 -192 -68 -489 -234 -600
-337 -17 -15 -58 -51 -90 -80 -64 -55 -169 -173 -236 -263 -58 -79 -155 -280
-185 -385 -118 -416 21 -877 362 -1206 136 -130 230 -195 409 -283 293 -145
609 -192 970 -145 86 11 315 66 405 97 120 42 327 137 395 181 22 14 52 31 68
38 15 7 27 18 27 26 0 7 27 33 59 57 66 47 74 60 62 93 -28 72 -147 95 -242
46 -56 -28 -300 -123 -394 -152 -177 -55 -286 -71 -485 -71 -212 0 -323 19
-490 81 -404 151 -683 427 -772 763 -29 110 -31 320 -4 420 56 208 210 426
415 589 102 81 138 104 256 164 159 81 328 123 520 130 465 18 811 -217 951
-648 67 -205 69 -393 7 -585 -56 -175 -120 -227 -228 -186 -94 36 -172 145
-196 272 -14 72 -5 258 16 369 9 44 19 110 22 146 5 63 4 67 -27 102 -17 20
-42 42 -55 49 -112 63 -137 72 -235 89 -299 52 -633 -12 -804 -154 -114 -94
-141 -120 -196 -188 -63 -80 -110 -182 -131 -288 -14 -76 -6 -256 15 -323 56
-176 200 -348 336 -399 120 -45 259 -32 368 34 68 41 181 155 234 235 43 66
53 73 63 43 12 -40 90 -148 154 -214 141 -146 296 -197 471 -153 305 77 566
403 621 777 17 116 6 352 -20 453 -121 461 -443 773 -902 876 -84 19 -288 41
-339 37 -14 -1 -47 -3 -75 -5z m-142 -1073 c79 -11 136 -26 154 -41 15 -12 -2
-57 -98 -257 -75 -157 -165 -318 -202 -365 -31 -38 -51 -31 -126 49 -135 145
-203 348 -155 463 52 125 215 183 427 151z"/>
</g>
</svg>
