<?xml version="1.0" standalone="no"?>
<!DOCTYPE svg PUBLIC "-//W3C//DTD SVG 20010904//EN"
 "http://www.w3.org/TR/2001/REC-SVG-20010904/DTD/svg10.dtd">
<svg version="1.0" xmlns="http://www.w3.org/2000/svg"
 width="134.000000pt" height="315.000000pt" viewBox="0 0 134.000000 315.000000"
 preserveAspectRatio="xMidYMid meet">
<metadata>
Created by potrace 1.16, written by Peter Selinger 2001-2019
</metadata>
<g transform="translate(0.000000,315.000000) scale(0.100000,-0.100000)"
fill="#000000" stroke="none">
<path d="M978 3040 c-98 -31 -140 -54 -213 -116 -56 -46 -46 -20 -122 -334
-54 -229 -92 -397 -114 -510 -11 -58 -36 -175 -55 -260 -19 -85 -46 -213 -60
-285 -13 -71 -29 -149 -34 -172 -17 -72 -70 -396 -70 -425 0 -16 12 -41 29
-60 25 -28 37 -33 90 -38 51 -5 64 -3 71 10 4 8 31 24 59 34 62 22 59 15 140
288 54 182 145 462 305 933 114 339 196 599 222 702 14 60 30 116 36 126 8 15
-2 29 -51 78 -55 54 -64 59 -103 58 -24 0 -82 -13 -130 -29z"/>
<path d="M365 630 c-96 -23 -209 -110 -250 -190 -31 -60 -35 -147 -10 -208 10
-24 39 -62 67 -87 76 -68 153 -85 278 -63 74 14 197 103 242 176 32 52 31 151
-4 217 -66 127 -193 188 -323 155z"/>
</g>
</svg>
