<?xml version="1.0" standalone="no"?>
<!DOCTYPE svg PUBLIC "-//W3C//DTD SVG 20010904//EN"
 "http://www.w3.org/TR/2001/REC-SVG-20010904/DTD/svg10.dtd">
<svg version="1.0" xmlns="http://www.w3.org/2000/svg"
 width="235.000000pt" height="66.000000pt" viewBox="0 0 235.000000 66.000000"
 preserveAspectRatio="xMidYMid meet">
<metadata>
Created by potrace 1.16, written by Peter Selinger 2001-2019
</metadata>
<g transform="translate(0.000000,66.000000) scale(0.100000,-0.100000)"
fill="#000000" stroke="none">
<path d="M1235 570 c-272 -12 -544 -29 -700 -45 -77 -7 -171 -17 -209 -20
-135 -13 -192 -45 -215 -117 -32 -106 -32 -110 -4 -153 50 -77 108 -142 137
-155 29 -13 152 -10 391 10 196 17 228 19 360 25 72 3 148 8 170 11 137 16
912 -1 973 -21 15 -6 81 27 82 40 0 5 12 19 26 30 24 19 27 30 31 96 4 85 -10
120 -87 213 -68 82 -105 89 -480 91 -162 2 -376 -1 -475 -5z"/>
</g>
</svg>
