<?xml version="1.0" standalone="no"?>
<!DOCTYPE svg PUBLIC "-//W3C//DTD SVG 20010904//EN"
 "http://www.w3.org/TR/2001/REC-SVG-20010904/DTD/svg10.dtd">
<svg version="1.0" xmlns="http://www.w3.org/2000/svg"
 width="308.000000pt" height="308.000000pt" viewBox="0 0 308.000000 308.000000"
 preserveAspectRatio="xMidYMid meet">
<metadata>
Created by potrace 1.16, written by Peter Selinger 2001-2019
</metadata>
<g transform="translate(0.000000,308.000000) scale(0.100000,-0.100000)"
fill="#000000" stroke="none">
<path d="M1584 2852 c-91 -30 -154 -69 -154 -94 0 -9 -5 -18 -12 -20 -16 -6
-15 -269 2 -559 7 -119 11 -221 9 -227 -2 -7 -82 83 -178 198 -220 266 -269
315 -315 323 -49 8 -83 -4 -163 -56 -109 -72 -136 -110 -136 -194 0 -62 0 -62
193 -282 69 -78 127 -147 129 -153 4 -12 -51 -8 -194 12 -227 32 -294 40 -333
40 -83 0 -161 -63 -210 -168 -30 -67 -29 -165 4 -209 42 -56 57 -61 224 -68
128 -5 554 -40 583 -48 5 -2 -81 -87 -191 -190 -109 -102 -217 -206 -240 -231
-50 -54 -67 -107 -47 -146 40 -78 188 -221 274 -265 59 -30 75 -15 246 229 54
76 145 197 202 268 l105 129 17 -28 c43 -72 162 -407 245 -688 60 -203 77
-225 166 -225 72 0 158 23 204 54 104 70 146 127 146 197 0 48 -53 218 -135
434 -23 60 -41 111 -40 113 6 7 490 -219 608 -284 41 -23 70 -11 137 57 65 67
150 226 150 280 0 88 -88 153 -357 263 -102 42 -301 125 -511 214 l-94 39 29
20 c15 11 136 87 268 168 376 231 405 254 405 315 0 37 -42 131 -81 180 -48
61 -90 84 -137 76 -36 -5 -163 -74 -292 -157 -41 -27 -113 -73 -160 -103 -65
-42 -87 -52 -92 -41 -11 19 -3 435 12 592 7 73 9 144 6 158 -8 31 -57 82 -91
95 -44 17 -116 10 -201 -18z"/>
</g>
</svg>
