<?xml version="1.0" standalone="no"?>
<!DOCTYPE svg PUBLIC "-//W3C//DTD SVG 20010904//EN"
 "http://www.w3.org/TR/2001/REC-SVG-20010904/DTD/svg10.dtd">
<svg version="1.0" xmlns="http://www.w3.org/2000/svg"
 width="311.000000pt" height="296.000000pt" viewBox="0 0 311.000000 296.000000"
 preserveAspectRatio="xMidYMid meet">
<metadata>
Created by potrace 1.16, written by Peter Selinger 2001-2019
</metadata>
<g transform="translate(0.000000,296.000000) scale(0.100000,-0.100000)"
fill="#000000" stroke="none">
<path d="M2293 2870 c-12 -5 -39 -33 -60 -62 -44 -60 -289 -429 -349 -526 -21
-35 -56 -91 -78 -125 -77 -125 -221 -364 -271 -452 -29 -49 -95 -164 -147
-255 -52 -91 -148 -259 -213 -375 -64 -115 -139 -248 -165 -295 -26 -47 -57
-101 -68 -120 -27 -50 -126 -277 -142 -327 -10 -32 -10 -54 -2 -95 16 -82 29
-106 64 -124 18 -9 40 -22 48 -29 12 -10 32 -5 110 29 52 23 94 46 93 51 -1 6
6 19 16 30 20 23 36 57 81 170 39 99 244 516 337 685 38 69 87 159 109 200
165 307 472 831 748 1275 75 121 136 228 136 238 0 34 -34 77 -75 97 -44 21
-132 26 -172 10z"/>
<path d="M687 2858 c-191 -14 -348 -111 -492 -303 -59 -79 -92 -163 -106 -273
-33 -249 98 -510 346 -686 170 -121 307 -169 485 -170 101 -1 125 2 196 27
256 88 457 318 504 577 13 71 -1 196 -30 273 -74 193 -242 361 -472 472 -151
72 -271 96 -431 83z m68 -339 c141 -48 240 -113 358 -239 103 -110 168 -237
175 -344 8 -121 -32 -165 -158 -174 -237 -16 -606 278 -684 547 -18 63 -20
101 -6 151 14 51 31 70 70 80 51 13 175 2 245 -21z"/>
<path d="M2165 1540 c-166 -15 -292 -83 -391 -211 -111 -145 -146 -336 -92
-509 52 -170 232 -360 428 -452 123 -58 273 -83 398 -68 105 14 230 56 262 90
3 3 23 19 45 35 76 56 141 132 180 209 33 65 39 88 43 155 2 45 -1 103 -8 133
-73 312 -401 586 -745 621 -22 2 -76 1 -120 -3z m96 -365 c201 -70 417 -295
436 -455 l6 -50 -39 -16 c-48 -20 -165 -15 -236 10 -121 42 -269 156 -341 263
-60 87 -95 219 -69 259 20 31 138 26 243 -11z"/>
</g>
</svg>
