<?xml version="1.0" standalone="no"?>
<!DOCTYPE svg PUBLIC "-//W3C//DTD SVG 20010904//EN"
 "http://www.w3.org/TR/2001/REC-SVG-20010904/DTD/svg10.dtd">
<svg version="1.0" xmlns="http://www.w3.org/2000/svg"
 width="228.000000pt" height="200.000000pt" viewBox="0 0 228.000000 200.000000"
 preserveAspectRatio="xMidYMid meet">
<metadata>
Created by potrace 1.16, written by Peter Selinger 2001-2019
</metadata>
<g transform="translate(0.000000,200.000000) scale(0.100000,-0.100000)"
fill="#000000" stroke="none">
<path d="M941 1909 c-76 -13 -162 -54 -206 -99 -54 -55 -56 -101 -12 -255 19
-66 36 -127 38 -135 3 -12 -35 -14 -261 -15 -247 -1 -268 -3 -305 -22 -75 -39
-110 -104 -108 -200 1 -68 20 -153 34 -153 5 0 9 -6 9 -14 0 -8 12 -24 28 -36
27 -22 27 -22 337 -15 171 5 327 9 349 9 l38 1 19 -65 c11 -36 24 -81 29 -100
5 -19 16 -62 25 -95 37 -137 169 -523 192 -562 38 -65 67 -81 134 -74 36 4 67
14 85 28 16 12 58 41 94 65 35 24 78 62 94 86 50 71 41 125 -72 422 -22 58
-59 154 -81 214 -23 60 -39 111 -36 114 13 13 318 43 508 48 l208 7 44 35 c39
30 62 64 57 84 -1 4 5 26 13 49 21 59 19 101 -8 140 -47 70 -154 82 -507 55
-321 -25 -470 -29 -474 -14 -2 7 -9 31 -15 53 -108 386 -114 406 -139 428 -25
22 -51 25 -111 16z"/>
</g>
</svg>
