<?xml version="1.0" standalone="no"?>
<!DOCTYPE svg PUBLIC "-//W3C//DTD SVG 20010904//EN"
 "http://www.w3.org/TR/2001/REC-SVG-20010904/DTD/svg10.dtd">
<svg version="1.0" xmlns="http://www.w3.org/2000/svg"
 width="397.000000pt" height="330.000000pt" viewBox="0 0 397.000000 330.000000"
 preserveAspectRatio="xMidYMid meet">
<metadata>
Created by potrace 1.16, written by Peter Selinger 2001-2019
</metadata>
<g transform="translate(0.000000,330.000000) scale(0.100000,-0.100000)"
fill="#000000" stroke="none">
<path d="M970 3084 c-216 -39 -413 -137 -559 -278 -81 -78 -139 -158 -178
-243 -37 -81 -43 -206 -15 -299 49 -160 179 -310 385 -444 64 -41 116 -77 116
-80 0 -3 -35 -30 -77 -60 -95 -69 -242 -214 -305 -301 -143 -201 -150 -376
-23 -558 95 -137 266 -254 468 -322 424 -141 983 -1 1336 335 59 56 64 59 85
46 12 -7 99 -61 192 -118 94 -58 186 -115 205 -128 19 -12 96 -59 170 -104
479 -290 548 -330 577 -330 30 0 124 28 133 40 3 3 28 22 55 40 28 19 56 39
62 46 7 7 16 14 20 16 15 6 90 114 121 173 46 87 43 117 -25 239 -97 173 -295
488 -333 528 -46 48 -91 51 -170 11 -69 -34 -150 -111 -151 -144 -2 -42 1 -52
42 -121 44 -75 89 -162 89 -173 0 -3 -24 7 -52 23 -114 62 -675 412 -712 443
-4 4 0 40 9 81 30 133 17 307 -31 400 -8 15 -14 31 -14 36 0 10 208 77 216 69
3 -2 -4 -20 -15 -38 -28 -45 -26 -81 4 -117 40 -48 68 -49 152 -6 159 80 319
272 383 459 24 70 26 118 4 136 -29 24 -176 17 -284 -15 -239 -69 -762 -228
-829 -250 -130 -45 -219 -103 -251 -165 -36 -69 -29 -122 21 -168 52 -46 190
-57 317 -24 l73 19 10 -25 c16 -42 6 -219 -13 -239 -3 -2 -56 27 -119 64 -228
137 -337 200 -466 272 -73 40 -133 77 -133 81 0 5 20 22 44 38 62 43 164 158
212 238 105 178 136 325 99 481 -40 169 -172 319 -345 394 -125 54 -336 72
-500 42z m159 -374 c143 -48 241 -121 286 -215 79 -160 -11 -376 -185 -449
-35 -14 -35 -14 -171 59 -338 182 -479 310 -479 435 0 78 46 129 151 164 116
39 292 42 398 6z m20 -1207 c267 -141 740 -425 748 -450 6 -17 -181 -118 -282
-152 -164 -54 -363 -64 -525 -26 -106 25 -246 100 -315 170 -70 69 -95 115
-95 175 0 59 25 105 95 175 56 57 217 175 239 175 5 0 66 -30 135 -67z"/>
</g>
</svg>
