<?xml version="1.0" standalone="no"?>
<!DOCTYPE svg PUBLIC "-//W3C//DTD SVG 20010904//EN"
 "http://www.w3.org/TR/2001/REC-SVG-20010904/DTD/svg10.dtd">
<svg version="1.0" xmlns="http://www.w3.org/2000/svg"
 width="244.000000pt" height="304.000000pt" viewBox="0 0 244.000000 304.000000"
 preserveAspectRatio="xMidYMid meet">
<metadata>
Created by potrace 1.16, written by Peter Selinger 2001-2019
</metadata>
<g transform="translate(0.000000,304.000000) scale(0.100000,-0.100000)"
fill="#000000" stroke="none">
<path d="M1015 2945 c-222 -41 -411 -119 -580 -240 -78 -55 -219 -205 -264
-279 -68 -114 -86 -171 -86 -281 0 -93 2 -105 34 -169 47 -96 152 -204 294
-299 63 -42 119 -77 124 -77 6 0 16 -6 22 -14 7 -8 37 -22 67 -32 62 -19 64
-19 167 48 32 21 62 38 67 38 8 0 21 24 26 49 1 7 26 37 56 67 103 104 93 125
-117 233 -264 136 -363 224 -351 315 6 48 28 80 92 129 89 68 232 118 399 141
308 43 655 -62 865 -261 74 -69 110 -129 110 -183 0 -45 -56 -98 -185 -174
-55 -32 -176 -104 -270 -159 -462 -272 -672 -452 -754 -645 -61 -146 -1 -291
174 -419 32 -23 66 -43 75 -43 21 0 140 41 200 68 72 34 101 53 166 115 59 56
61 60 51 88 -9 23 -24 34 -65 49 -152 57 -188 101 -148 178 42 80 236 211 626
422 257 139 395 250 484 388 53 82 65 117 72 207 5 56 2 82 -16 134 -96 285
-493 547 -919 606 -125 18 -320 18 -416 0z"/>
<path d="M1200 589 c-215 -32 -350 -199 -287 -352 23 -54 83 -114 145 -143 50
-23 64 -26 136 -22 97 6 175 38 243 101 117 108 133 231 44 330 -61 67 -173
102 -281 86z"/>
</g>
</svg>
