<?xml version="1.0" standalone="no"?>
<!DOCTYPE svg PUBLIC "-//W3C//DTD SVG 20010904//EN"
 "http://www.w3.org/TR/2001/REC-SVG-20010904/DTD/svg10.dtd">
<svg version="1.0" xmlns="http://www.w3.org/2000/svg"
 width="137.000000pt" height="264.000000pt" viewBox="0 0 137.000000 264.000000"
 preserveAspectRatio="xMidYMid meet">
<metadata>
Created by potrace 1.16, written by Peter Selinger 2001-2019
</metadata>
<g transform="translate(0.000000,264.000000) scale(0.100000,-0.100000)"
fill="#000000" stroke="none">
<path d="M900 2419 c-96 -29 -180 -74 -239 -127 l-52 -47 -33 -140 c-31 -127
-84 -356 -121 -525 -39 -177 -156 -738 -173 -830 -19 -97 -29 -153 -66 -365
-11 -66 -12 -84 -1 -105 23 -45 53 -64 113 -71 47 -5 60 -3 72 11 8 9 38 25
66 35 l51 18 26 81 c14 45 49 158 76 251 28 94 129 404 226 690 186 550 275
831 295 930 7 33 17 68 22 79 9 16 0 28 -51 77 -55 54 -65 59 -104 58 -23 0
-71 -9 -107 -20z"/>
</g>
</svg>
