<?xml version="1.0" encoding="UTF-8"?>
<svg id="Layer_1" xmlns="http://www.w3.org/2000/svg" version="1.1" viewBox="0 0 2500 796.2">
  <!-- Generator: Adobe Illustrator 30.4.0, SVG Export Plug-In . SVG Version: 2.1.4 Build 226)  -->
  <defs>
    <style>
      .st0 {
        fill-rule: evenodd;
      }
    </style>
  </defs>
  <path class="st0" d="M1604.4,216.2c4.4,0,12,1.1,12-5.9s-4.4-6.2-9.1-6.2h-9.5v12h6.6ZM1620.4,235.1h-5.1l-9.8-15.7h-7.7v15.7h-4.4v-33.9h14.9c3.3,0,5.8.4,8.4,1.8,2.2,1.1,3.6,4,3.6,7.3,0,6.9-4.7,9.1-10.2,9.1l10.2,15.7h0ZM1631.4,218c0-14.4-11.8-26.1-26.2-26.2-14.6,0-26.9,11.7-26.9,26.2s12.3,26.9,26.9,26.9,26.2-12,26.2-26.9ZM1575,218c0-16.5,13.3-29.8,29.8-29.9h.4c16.8,0,30.2,13.5,30.2,29.9s-13.4,30.5-30.2,30.5-30.2-13.8-30.2-30.5h0ZM2361.8,216.2c4.4,0,12,1.1,12-5.9s-4.8-6.2-8.7-6.2h-9.8v12h6.5ZM2377.5,235.1h-4.8l-10.2-15.7h-7.3v15.7h-4v-33.9h14.6c2.9,0,5.4.4,8.3,1.8,2.6,1.1,3.6,4,3.6,7.3,0,6.9-4.7,9.1-10.6,9.1l10.2,15.7h.2ZM2388.7,218c0-14.6-11.6-26.2-26.5-26.2s-26.2,11.6-26.2,26v.2c0,14.9,11.7,26.9,26.2,26.9s26.5-12,26.5-26.9ZM2332.4,218c0-16.4,12.7-29.9,29.9-29.9s30.2,13.5,30.2,29.9-13.4,30.5-30.2,30.5-29.9-13.8-29.9-30.5ZM563.3,495.6c-43.9.2-79.5-35.3-79.7-79.1v-.6c0-44,35.6-79.6,79.6-79.6h0c44,0,79.6,35.6,79.6,79.5h0c.2,43.9-35.2,79.6-79,79.8h-.6,0ZM264.2,495.6c-44,0-79.3-35.3-79.3-79.7s35.3-79.6,79.3-79.6,79.7,35.6,79.7,79.6c.2,43.9-35.3,79.5-79.2,79.7h-.5ZM1266.8,495.6c-44,0-79.3-35.3-79.3-79.7s35.3-79.6,79.3-79.6,79.3,35.6,79.3,79.6c.2,43.8-35.2,79.5-79,79.7h-.3ZM964.5,495.6c-43.7.3-79.4-35-79.7-78.7v-1c0-43.9,35.3-79.5,79.2-79.6h.5c44,0,79.7,35.6,79.7,79.6h0c0,43.9-35.3,79.6-79.2,79.7h-.5,0ZM643.3,525.5c-23.2,17.1-51.2,26.3-80,26.2-75,0-135.7-60.8-135.7-135.7s60.7-135.3,135.7-135.3,57.4,9.8,79.6,26.2v-111.7h59v354.3h-58.6v-24h0ZM1589.9,367.2c-3.3-22.2-21.1-38.2-49.5-38.2s-47.3,5.1-47.3,24.3c0,28.8,49.1,31.3,61.1,32,78.6,7.3,101.5,41.8,101.5,82.6s-15.3,52.7-37.1,68.8c-18.5,13.4-56.7,18.9-80,18.9-51.7,0-104-28.3-111-92.4h57.9c3.2,30.2,34.9,41.5,52.7,41.5,32.3,0,55.3-13.8,55.3-29.8,0-25.5-23.6-30.9-57.9-34.6-19.2-2.2-56-8.7-71.3-21.5-17.1-13.4-31.6-28.8-31.6-54.9,0-46.9,36.7-84,109.2-84.4,60-.4,105.5,35.3,106.9,87.3l-58.9.4h0ZM344.2,525.4c-23.2,17.1-51.2,26.3-80,26.2-75.3,0-135.3-60.8-135.3-135.7s60-135.3,135.3-135.3,57.5,9.8,80,26.2v-25.8h58.2v268.5h-58.2v-24h0ZM803,262.4v-67.7h-58.6v67.7h58.6ZM803,549.4v-268.5h-58.6v268.5h58.6ZM1346.1,525.5c-21.8,16.7-49.5,26.2-79.3,26.2-74.9,0-135.7-60.8-135.7-135.7s60.7-135.3,135.7-135.3,57.5,9.8,79.3,26.2v-25.8h58.9v268.5h-58.2l-.7-24h0ZM1044.5,525.5c-22.2,16.7-50.2,26.2-80,26.2-74.6,0-135.7-60.8-135.7-135.7s61.1-135.3,135.7-135.3,57.5,9.8,80,26.2v-111.7h58.2v354.3h-58.2v-24h0ZM2108.3,385.4c3.3-63.7-15.7-133.5-66.6-201.6-49.4,63.7-66.9,136.1-62.5,201.6h129.2-.1ZM1986.8,435.9c-2.2-9.5-4-19.1-5.4-28.7h124.8c-1.4,9.6-3.2,19.2-5.4,28.7h-114ZM2015.9,508c8,13.3,17.3,25.9,27.6,37.5,10.2-11.3,19.3-24,27.7-37.5h-55.3,0ZM2302.9,385.7c14.5-30.2,24.7-64,29.4-101.9-84.7,7.3-151.3,48.4-196.1,101.9h166.7ZM2291.6,407.2c-5.8,10.2-12,19.2-18.5,28.7l-169.9-.7c5.4-9.1,10.9-19.3,17.1-28h171.4-.1ZM2224.7,486.1c10.6-8.7,20.6-18.2,29.8-28.4l-422-.4c9.5,10.5,19.8,20.2,30.9,29.1l361.3-.4h0ZM2077.4,508c-2.5,12.1-4,24.4-4.4,36.7,40.4-1.8,82.2-14.2,120-36.7h-115.7,0ZM1795.4,407.2c6.2,10.2,12.4,19.2,19.3,28.7h169.2c-4.8-9.8-10.6-19.2-16.8-28.7h-171.7ZM1894.4,508c37.8,22.5,79.3,34.9,119.7,36.7-.5-12.3-1.8-24.6-4-36.7h-115.7ZM1950.7,385.7c-44.4-53.5-110.5-94.6-195.3-101.9,4.3,35.2,14,69.6,28.8,101.9h166.6,0Z"/>
</svg>