<?xml version="1.0" encoding="UTF-8"?>
<svg id="Layer_1" xmlns="http://www.w3.org/2000/svg" version="1.1" viewBox="0 0 2500 1602.2">
  <!-- Generator: Adobe Illustrator 30.4.0, SVG Export Plug-In . SVG Version: 2.1.4 Build 226)  -->
  <defs>
    <style>
      .st0 {
        fill-rule: evenodd;
      }
    </style>
  </defs>
  <path class="st0" d="M1107.3,575.9c-26.3,0-35,54.8-35,142.6s-9.2,166.1,37.7,166.1,31.7-15.1,31-37.7c-3.8-123.4,12.3-270.9-33.8-270.9h.1ZM1499.3,583.2c0-12.9-59-23.5-91.4-23.5-57,0-232.6,16.2-232.6,100.1s70.3,48.6,138.4,48.6,126.6,13,128.3,49.5c1.8,39.3-71.6,59-163.6,59s-52-10.3-52-31.3,10.3-19.8,26.3-19.8c29.8,0,57.2,19.8,92,19.8s59.6-11.5,59.6-25.2c0-26-104.8-26.6-140.4-26.6s-64.3,29.4-64.3,51.7,41.9,93.1,149.3,93.1,143.4-31.3,143.4-109-79.8-97.7-136.3-97.7-112-2.5-112-19.3c0-41.1,255.3-8.7,255.3-69.5h0ZM1554,876.2c-23.5,0-40.3-39.8-40.3-70s19-220.7,64.2-220.7,117.8,170.4,136.3,170.4,10.3-43.3,1.9-85.4c-12.4-62.2-33.1-127.3-33.1-130.9,0-6.7-1.7-20.1,10.1-20.1,29.6,0,89.5,100.6,89.5,203.7s-11,127.5-65,127.5-106.2-162.7-122.6-162.7-17.2,123-17.2,133.9-.7,54.4-23.8,54.4h0ZM1834.6,740.5c-7-3-8.4-12.1-8.4-23.5,0-16.3,10.4-25.4,26.4-28.6,9.5-26.9,14.9-47,19.2-60.4-8.6-.5-4.4,0-9.6-.7-29.4-3.2-31.2-15.8-38.4-34.4-4.8-12.6,163.4-36.1,194.4-36.1s38.6,12.6,45.3,19.3,19.3,17.6,19.3,27.7-16,24.3-37.7,26c-26.1,2.1-73.1,2.5-108.6,1.7-2.3,8.3-8,25.7-16.3,52.2,35-2,74-4,82-3.5,14.9.8,25,4.4,24.1,25.4-.9,22.9-7.1,23.9-27.7,27.7-8.2,1.5-55,3.9-95.8,5.8-8.8,28.7-14,42.1-14.6,44.5-3.8,13.6,2.5,25.1,9.2,25.1s97.3-22.9,112.4-22.9,24.6,16.5,24.6,31.6-86.7,78.6-145.4,78.6-76.3-68.8-76.3-88.1,9.4-30.7,21.9-67.5h0ZM467.8,648.5l-1.7,195.7c-126.1-44-200.3-121.6-200.3-145.8s108.6-44.4,202-49.9l1.7-66c-116.3,19.1-221.9,64.5-221.9,113.4s97,138.6,219.2,197.6c2.4,51.1,11.5,74.1,40.2,74.1s36.1-8.9,37.7-44c39.1,12.3,78,19.7,117.2,19.7,202.1,0,367.4-97.9,367.4-260.8S739.9,227.6,295.5,227.6s-157.4,31-163.8,42.8c-4.6,8.4-21.4,28.5-21.4,34.8,0,16.4,31.3,22.1,38.7,22.1,20.8,0,30.6-8.9,30.6-14.3,0-13.4-30.6-9.2-30.6-20.5,0-18.5,75.1-25.2,138-24.3,324.7,4.6,659.3,220,659.3,413.5s-135.9,193.7-293.6,193.7-82.5-4.8-108.7-10c-1.2-34.3-2.9-79.7-2.9-139.3s-.7-55.3-1-80.4c5.7,0,11,0,16.1,0,56.5,0,202.1,7.8,202.1,41.5s-27.4,30.5-27.4,46.3.8,8.2,28.7,8.2,62.1-44.3,62.1-67.5c0-74.7-148.3-101.2-241.7-101.2s-26.8.9-40.7,1.8c-3.4-94.4-13.2-147.8-40.4-147.8s-25.7,61.2-29.4,155.6l-1.7,66h0ZM1155.9,337.6l-.8-.4c-11.2-3.1-24-4.2-29.9-4.6-29.6-2.1-80.6,46.8-82.9,79.1-.4,5.8,1.1,11.5,5.1,17.2,23.4-30.2,61.2-67.9,108.5-91.3h0ZM1021.1,475.4c-14.7-17.2-22.7-38-21.2-59.1,4.7-67.5,113.4-135.7,189-130.4,37.7,2.6,60.9,16.9,60,29.5,3.1,0,6.2.2,9.4.4,28.4,2,52.2,23.3,49.6,60.6-3.1,44.1-105.4,148.2-198.3,141.7-13.4-.9-26.7-3.8-39.3-8.7-9.9,17.2-18.7,25.6-28.3,24.9-16.7-1.2-23.4-24.5-21-59.1h0v.2ZM1091.8,459.7c10.2,4,20.6,6.6,29.8,7.2,59.4,4.2,140.4-36.4,144.4-92.5,1.1-15.9-9.3-23.3-26-24.5-36.6-2.6-126.4,65.1-148.1,109.8h-.1Z"/>
  <path class="st0" d="M2203.2,805.8c4.4,1.2,8.7,1.9,12.8,2.1,45.3,1.6,132.9-39.6,136.1-129,.7-20.1-5.4-37.1-15.5-37.5-10.9-.4-63.5,30.6-133.3,164.3l-60.3-49.4c69.1-108.3,152.3-177.2,191.1-175.9,25.1.9,57,62.6,55.6,101.4-4.8,138.3-138.4,201.6-205.2,199.3-5.6-.2-10.6-2.7-16.6-4.8-12.1,27.9-22.3,56.5-30.8,85.7,69.5,4.6,136.3,9.9,199.1,15.3,49.2,4.5,22.4,26.8-4.5,26.8s-85.2-4.3-204.4-4.9c-22.3,95.4-19,161.4-35.7,160.8-16.8-.6-58.9-43.2-58-70.9,1.1-30.9,4.8-61.3,10.5-90.8-402.2,3.5-1107.4,50.8-1322.9,323.4-26.8,53.7-51.4,60.4-82.8,47-31.3-13.4-42.5-87.2-11.2-127.5,320.5-290.7,930-311.3,1427.1-284.1,12.1-45.6,28.7-89.9,49.7-132.2-15.6-22.3-24.6-47.1-23.7-71.5,3.2-91.6,94.5-195.5,114.8-194.8,9,.3,8.6,5.3,8.3,14.6-1.1,31.6-65.4,117.4-66.8,156.8-.3,9.2,1.9,18,6.1,26.5l60.3,49.4h.2Z"/>
</svg>