<?xml version="1.0" encoding="UTF-8"?>
<svg id="Layer_1" xmlns="http://www.w3.org/2000/svg" version="1.1" viewBox="0 0 2500 1463.7">
  <!-- Generator: Adobe Illustrator 30.4.0, SVG Export Plug-In . SVG Version: 2.1.4 Build 226)  -->
  <path d="M1250,302.7c-670,0-1213.2,192.1-1213.2,429.1s543.2,429.2,1213.2,429.2h0c670.1,0,1213.2-192.1,1213.2-429.1s-543.2-429.2-1213.2-429.2ZM1249.8,1152.5h0c-656.7,0-1200.4-188.4-1200.4-420.7s543.8-420.7,1200.5-420.7,1197.9,188.4,1197.9,420.7-541.2,420.7-1197.9,420.7Z"/>
  <path d="M2425.3,686.7l-2.1,6.8c-3.4,16.5-23.2,7.8-35.4,11.6-5.1.3-6.7,5.2-7.6,8.6.4,30.4-10.5,56.3-24,81.1-33.7,58.2-89.3,119-156.7,149.4-142.4,69.8-300.7,104.7-462.1,133.2-280.2,51-609.2,58.2-895.2,13.5-198-31.5-391.3-72.8-561.5-164.4-63.6-29.7-121.7-88.2-150.8-144.9-9.2-12.3-5.4-29.6-10.5-43.5-7.2-12-25.3-6.3-37.1-11.6-5.9-3.4-8.8-9.4-10.1-15l-4.6,12.8c-1.2,38.3,23.6,67.9,45.1,97.6,102.4,118.2,246,172.2,390.1,212.8,322.7,85.9,691.7,124.6,1050.2,81.4,224.1-28.2,442.7-69.1,639.9-155.8,67-29.7,131.9-66.5,185.4-122.4h-.2c40.8-40.9,76.7-96.4,47.2-151.2Z"/>
  <path d="M2298,830c-37.5,57.4-106.2,94.2-163.9,125,64.4-22.2,128-57.4,172.7-112.2,29.9-40.2,59.4-81.1,58.1-132.5h0c-6.7,1.1-14.3.7-20.2,1.8,1.2,45.5-22.8,81.9-46.8,117.9Z"/>
  <path d="M321.3,931l-45.5-29.3c-63.6-41.3-113.7-97.9-123.8-164h0s-19-3-19-3l2.1,18.4c21.9,77,104.9,147.1,186.2,177.9Z"/>
  <path d="M1248.5,1092.8h0c594.4,0,1076.3-166.3,1076.3-371.4s-481.9-371.5-1076.3-371.5S172.2,516.1,172.2,721.3s481.9,371.5,1076.3,371.5ZM1247.4,382.4c575.5,0,1042.1,152.5,1042.1,340.7s-466.6,340.7-1042.1,340.7h0c-575.5,0-1042.1-152.4-1042.1-340.6s466.6-340.8,1042.1-340.8Z"/>
  <path d="M1247.5,1035.5s0,0,0,0,0,0,0,0h0Z"/>
  <path d="M1247.4,1035.5c558,0,1010.4-139.8,1010.4-312.3s-452.4-312.4-1010.4-312.4S237.1,550.7,237.1,723.2s452.4,312.3,1010.3,312.3ZM1679,703.2c16.5,1.7,33,7.9,41.1,22.6,3.1,6.1,5.8,12,6.9,18.8l104.8-145.8,64.5,4.1-177.8,249.4v.4c-2.6,6.5-7.2,14.4-2.6,21.9,2.3,2.7,5.4,6.2,9.6,6.8,16.5,1.4,29.2-7.5,42.2-15.7,23-17.1,44.2-38.6,65.7-57.8,4.2-2.7,8.1-6.5,13.4-5.5,6.2,2,14.2,6.5,15.8,13l-.8,3.1c-43,41.1-87.2,97.9-151.7,103.3-17.3,1-31.9-4.8-42.2-16.8-6.9-8.2-8.1-19.2-6.9-29.8-33.4,26.3-74.9,54.4-121.4,36.3-27.3-14.4-35.7-41.4-33.8-69.1,1.5-8.9,5-17.1,8.1-25.7-27.3,16.1-57.6,40.3-93.7,26.7-17.3-7.2-26.5-23.3-27.6-39.3-1.2-5.1.4-10.9.4-15.7l-88.3,124.5-57.6-.3c-1.2-.7-3.1-1.7-2.7-3.1l1.5-4.8,92.2-130.4c5-10.3,13.4-22.9,6.1-34.9-7.3-5.8-17.3-.7-24.6,1.7-38.8,19.5-68.7,56.4-95.6,87.2-36.1,44.1-85.6,99.9-154.8,88.6-32.6-3.4-54.9-32.9-61.8-58.5,0-1-.4-2.1-1.2-2.4-15.7,12-27.7,28.8-44.9,37.3-2.8.7-5.7.7-8.4,0-6.9-5.1-8.8-12.3-10.4-19.5,2.7-8.9,13.8-12.3,20.4-19.2,48-45.5,61.8-113.3,131.7-141,17.3-7.2,35.7-11.6,56.5-11.3,5.8,0,10.8,4.4,13,9.2,2.2,3.3,4.6,8.4,2.3,12.3-6.9,6.1-17.3,6.1-25.3,9.6-39.6,16.1-78,52-81.4,91.4-1.5,16.4,3.8,32.8,20.7,41.7,21.1,9.6,46.1,1.4,63-11.3,30.7-25,45.7-56.1,49.9-91.4,1.2-14.4-4.2-26.3-8.1-39,0-8.5,9.6-15.1,17.3-18.5,5.8-2.4,15-4.4,20.7-.7,13.4,12.3,15.7,29.1,16.5,45.8,0,4.8.4,9.6-.8,14,38-29.1,69.9-80.4,125.6-73.6,13.8,1.7,26.9,12.7,30,25,2.3,8.2,1.1,18.5-.4,26.3,21.9-26,51.1-51.3,89.5-45.8,14.6,2,29.6,13.3,33.4,26.3,4.6,15.4-1.2,30.4-13.1,41.4-8.4,6.5-17.7,10.6-29.2,9.6-9.6-1-18.4-4.8-23.8-13-5-7.2-5-18.8,0-25.7-12.7,1.4-20.8,14.4-24.6,24-4.2,13-10.4,31.1,2.3,42.8,8.4,11,25,7.2,36.9,5.5,76.4-23.3,122.1-115,213.5-105ZM659.1,713.7c16.5-10.3,36.1-16.8,57.2-14.4,4.6,1,9.2,4.1,11.1,8.2,1.2,3.4,1.2,7.9-1.1,10.3-18.8,16.1-44.6,25.3-57.6,46.9-10.8,16.4-14.2,42.1-1.1,58.5,20.3,24.6,58.4,28.4,89.1,19.5,82.6-25.7,141.3-104.4,193.6-164.6-29.2,2.7-58,7.9-81,24.3-2.3,1-6.1,1.7-8.8.3-3.5-1.7-3.8-5.1-4.6-8.2,1.9-15.7,21.5-22.2,34.9-27.4,25.7-8.9,54.5-11.3,82.2-15.7,39.6-52.3,96.8-105,158.2-134.5-99.5-20.9-246.6-51.3-320.7,34.6-9.6,12.3-16.1,28.1-10.8,43.8,6.1,11.6,19.2,18.1,33,18.8,38.4.7,64.9-28.4,90.2-52.7,2.7-1.7,6.1-3.4,10-2.4,3.1.7,4.6,3.8,5.8,5.8.8,24.3-17.3,42.4-33,60.9-32.3,31.8-76.4,53.4-124.4,39.7-25.7-7.2-44.2-31.5-46.5-54.7-5.8-46.9,27.7-87.2,72.2-108.5,68-34.9,154.8-39,238.1-30.8l59.2,6.1v.2c-.1,0,165.8,21.9,165.8,21.9,84.9,11.3,183.5,13.7,265.7-5.5,9.2-.3,21.1-3.8,28.4,2.7,3.9,3.1,4.6,7.2,3.5,11.6-3.9,16.8-24.2,28.1-39.6,36.3-72.2,37-173.6,20.9-251.2,4.8l-125.6-29.4h-.4c-1.2,4.8,1.1,10.9-1.9,15.1-48.8,26.3-93.7,69.5-121.7,112.6,27.7-1,56.1-2,82.6-7.2-3.8-20.2,3.8-39,22.3-51.7,10-5.8,22.7-9.2,34.6-6.5,8.5,2.7,15.7,10.3,18.1,17.8,4.2,15.4-2.7,29.8-15,40.4-8.4,6.5-17.7,11.6-27.7,14.7l.4,1c6.9,5.5,15.7,9.6,21.1,16.4.4,2.2-.3,4.5-1.9,6.2-3.1,3.1-6.9,3.1-11.1,3.4-14.2-1-22.7-13.7-32.6-22.2-34.6,4.8-70.3,7.9-106,10.6l-22.7,28.7-61.5,85.5c-48.4,65-121,140.6-218.1,130-45.3-4.1-92.9-33.9-106-73.9-17.7-50.3,11.1-96.8,55.3-127.3Z"/>
  <path d="M1164.3,611.9c.9-4.5,2.1-10.9-2.5-14.3h0c-3.4-3-9.7-3-13.9-1.5-16,7.9-20.2,24.4-17.3,40.2,13.5-3.8,29.1-10.9,33.7-24.4Z"/>
  <path d="M1580.3,870.1c7.7,5.1,20.8,4.4,29.6,1.7,39.6-13,62.6-50.6,84.9-79.7l-11.5-3.7c6.1-12.3,14.2-28,6.5-41.7h0c-5.4-6.6-13.4-10.7-23.4-9.3-50,7.8-86.1,55.8-97.2,96.1-2.7,13.3-1.6,28,11.1,36.6Z"/>
</svg>