<?xml version="1.0" encoding="UTF-8"?>
<svg id="Layer_1" xmlns="http://www.w3.org/2000/svg" version="1.1" viewBox="0 0 34 24">
  <!-- Generator: Adobe Illustrator 30.4.0, SVG Export Plug-In . SVG Version: 2.1.4 Build 226)  -->
  <defs>
    <style>
      .st0 {
        fill: #fff;
      }
    </style>
  </defs>
  <path class="st0" d="M17,20.6C7.8,20.6.4,16.7.4,12S7.8,3.4,17,3.4s16.6,3.9,16.6,8.6-7.5,8.6-16.6,8.6ZM10.9,5.3C5.5,6.5,1.7,9.1,1.7,12s1.1,3.2,3.1,4.4h.4c.1,0,.3,0,.3-.1v-.3c.7-1.5,2.9-6.7,5.8-10.3h.1v-.4h-.7.1ZM13.8,7.7c-1.7,3.9,1.4,3.5,2.2,3.3,1.4-.3,2.8-.8,3.9-1.2,3.1-1.2,4.7-2.5,5.3-2.9h.1v-.3c0-.1,0-.3-.3-.3h0c-2.4-.7-5.1-1.2-8.2-1.2s0,0-.1,0c-.4,0-.8,0-1.1.3-1.1.6-1.5,1.9-1.8,2.6h0v-.3ZM28.5,7.7v.3c-.7,1.5-2.9,6.7-5.8,10.3,0,0,0,.1-.1.1v.3h.7c5.4-1.1,9.2-3.7,9.2-6.7s-1.1-3.2-3.1-4.4h-.3c-.1,0-.3,0-.3.1h-.3ZM20.2,16.3c1.7-3.9-1.4-3.5-2.2-3.3-1.4.3-2.8.8-3.9,1.2-3.1,1.2-4.7,2.5-5.3,2.9h-.1v.3c0,.1,0,.3.3.3h0c2.4.7,5.1,1.2,8.2,1.2s0,0,.1,0c.4,0,.8,0,1.1-.3,1.1-.6,1.5-1.9,1.8-2.6v.3Z"/>
</svg>