<?xml version="1.0" encoding="UTF-8"?>
<svg id="Layer_1" xmlns="http://www.w3.org/2000/svg" version="1.1" viewBox="0 0 34 24">
  <!-- Generator: Adobe Illustrator 30.4.0, SVG Export Plug-In . SVG Version: 2.1.4 Build 226)  -->
  <defs>
    <style>
      .st0 {
        fill: #fff;
      }
    </style>
  </defs>
  <path class="st0" d="M17,18.2c-6.6,0-12-2.8-12-6.2s5.4-6.2,12-6.2,12,2.8,12,6.2-5.4,6.2-12,6.2ZM12.6,7.2c-3.9.8-6.6,2.7-6.6,4.8s.8,2.3,2.2,3.2c.1,0,.2,0,.3,0,.1,0,.2,0,.2-.1,0,0,0-.1,0-.2.5-1.1,2.1-4.8,4.2-7.4,0,0,0,0,.1-.1,0,0,0-.2,0-.2,0,0-.2,0-.5,0ZM14.7,8.9c-1.2,2.8,1,2.5,1.6,2.4,1-.2,2-.6,2.8-.9,2.2-.9,3.4-1.8,3.8-2.1,0,0,0,0,.1,0,0,0,0-.1,0-.2s0-.2-.2-.2c0,0,0,0,0,0-1.7-.5-3.7-.9-5.9-.9s0,0-.1,0c-.3,0-.6,0-.8.2-.8.4-1.1,1.4-1.3,1.9h0ZM25.3,8.9s0,.1,0,.2c-.5,1.1-2.1,4.8-4.2,7.4,0,0,0,.1-.1.1,0,0,0,.2,0,.2,0,0,.2,0,.5,0,3.9-.8,6.6-2.7,6.6-4.8s-.8-2.3-2.2-3.2c-.1,0-.2,0-.2,0-.1,0-.2,0-.2.1ZM19.3,15.1c1.2-2.8-1-2.5-1.6-2.4-1,.2-2,.6-2.8.9-2.2.9-3.4,1.8-3.8,2.1,0,0,0,0-.1,0,0,0,0,.1,0,.2s0,.2.2.2c0,0,0,0,0,0,1.7.5,3.7.9,5.9.9s0,0,.1,0c.3,0,.6,0,.8-.2.8-.4,1.1-1.4,1.3-1.9Z"/>
</svg>