<?xml version="1.0" encoding="UTF-8"?>
<svg id="Layer_1" xmlns="http://www.w3.org/2000/svg" version="1.1" viewBox="0 0 3879.9 2454.7">
  <!-- Generator: Adobe Illustrator 30.4.0, SVG Export Plug-In . SVG Version: 2.1.4 Build 226)  -->
  <defs>
    <style>
      .st0 {
        fill: #231f20;
      }
    </style>
  </defs>
  <path class="st0" d="M255.5,527.9v90.8h646.1v-90.8H255.5ZM993.1,527.9v90.8h920.7s-94-90.8-218.6-90.8h-702.1ZM2094.3,527.9v90.8h556.9l-33-90.8h-523.9ZM3050.5,527.9l-33,90.8h552v-90.8h-519ZM255.5,704.6v90.8h646.1v-90.8H255.5ZM993.1,704.7v90.7h1027.5s-12-69.9-32.9-90.7h-994.6,0ZM2094.3,704.7v90.7h618l-30.5-90.7h-587.5ZM2984.5,704.7l-30.5,90.7h615.6v-90.7h-585ZM441.1,881.3v90.9h279.8v-90.9h-279.8,0ZM1178.7,881.3v90.9h279.8v-90.9h-279.8ZM1730.5,881.3v90.9h279.8s17.7-48,17.7-90.9h-297.6ZM2279.9,881.3v90.9h496l-33-90.9h-463ZM2923.5,881.3l-33.2,90.9h498.5v-90.9h-465.3ZM441.1,1058.1v90.8h279.8v-90.8h-279.8,0ZM1178.7,1058.1v90.8h714.6s59.8-46.6,78.8-90.8h-793.5ZM2279.9,1058.1v90.8h279.8v-50.6l17.7,50.6h512.5l19.1-50.6v50.6h279.8v-90.8h-525.2l-27.9,76.9-28.1-76.9h-527.9,0ZM441.1,1234.7v90.8h279.8v-90.8h-279.8,0ZM1178.7,1234.7v90.8h793.5c-19-44-78.8-90.8-78.8-90.8h-714.6,0ZM2279.9,1234.7v90.8h279.8v-90.8h-279.8ZM2610.5,1234.7l33.8,90.8h384.3l32.2-90.8h-450.3ZM3109,1234.7v90.8h279.8v-90.8h-279.8ZM441.1,1411.4v90.8h279.8v-90.8h-279.8,0ZM1178.7,1411.4v90.8h279.8v-90.8h-279.8ZM1730.5,1411.4v90.8h297.6c0-42.9-17.7-90.8-17.7-90.8h-279.8ZM2279.9,1411.4v90.8h279.8v-90.8h-279.8ZM2674.1,1411.4l32.7,90.8h257.6l33-90.8h-323.5.1ZM3109,1411.4v90.8h279.8v-90.8h-279.8ZM260.4,1588v90.9h646.1v-90.9H260.4ZM993.1,1588v90.9h994.6c20.9-20.8,32.9-90.9,32.9-90.9H993.1ZM2099.2,1588v90.9h460.4v-90.9h-460.4ZM2737.8,1588l33.7,90.9h131.1l31.6-90.9h-196.5ZM3109,1588v90.9h465.5v-90.9h-465.5ZM260.4,1764.8v90.8h646.1v-90.8H260.4ZM993.1,1764.8v90.7h702.1c124.5,0,218.6-90.7,218.6-90.7h-920.7,0ZM2099.2,1764.8v90.8h460.4v-90.8h-460.4ZM2801.6,1764.8l32.5,90.5h5.6l32.9-90.5h-71ZM3109,1764.8v90.8h465.5v-90.8h-465.5Z"/>
</svg>