<?xml version="1.0" encoding="UTF-8"?>
<svg id="Layer_1" xmlns="http://www.w3.org/2000/svg" version="1.1" viewBox="0 0 2500 1463.2">
  <!-- Generator: Adobe Illustrator 30.4.0, SVG Export Plug-In . SVG Version: 2.1.4 Build 226)  -->
  <defs>
    <style>
      .st0 {
        fill: none;
      }

      .st1 {
        fill: #131e29;
      }
    </style>
  </defs>
  <rect class="st0" y="437.5" width="2500" height="589"/>
  <path class="st1" d="M1450.4,958.2c0,4.8,1.5,7.5,4.2,7.5,2.3-.2,4.2-1.2,6-2.5l779.2-505.7c13.2-9.2,28.9-13.9,45-13.5h171.2c26.2,0,44,17.5,44,43.7v327c0,39.5-8.8,62.5-43.7,83.5l-207.7,125c-2.1,1.4-4.5,2.3-7,2.5-2.5,0-5-2-5-9.3v-381.5c0-4.5-1.2-7.5-4.2-7.5-2.2.3-4.3,1.1-6,2.5l-569.4,370c-13,8.7-28.2,13.5-43.7,13.2h-377.5c-26.5,0-44-17.5-44-44v-471.2c0-3.5-1.5-6.7-4.5-6.7-2.2.3-4.3,1.1-6,2.5l-375.7,225.5c-3.7,2.5-4.7,4.3-4.7,6s.7,3,3.2,5.7l268.5,268.2c3.5,3.5,6,6.2,6,9.2s-4,4.5-8.7,4.5h-242.5c-19,0-33.7-2.7-44-13l-162.7-162.5c-1.2-1.5-3.1-2.4-5-2.5-1.8,0-3.5.6-5,1.5l-272,163.5c-16.5,10-27.7,12.7-44,12.7H44.3c-26.8.2-44.3-17.5-44.3-43.7v-320.7c0-39.8,8.7-62.5,44-83.5l209-125.5c1.6-1.1,3.5-1.7,5.5-1.7,3.3,0,5,3.3,5,10.5v429.5c0,4.5,1,6.5,4.2,6.5,2.3-.2,4.3-1.2,6.2-2.5l705.9-424.7c13.5-9.2,30-13.7,46.5-13h380c26.2,0,44,17.5,44,43.7l-.3,470.7h.3Z"/>
</svg>