<?xml version="1.0" encoding="UTF-8"?>
<svg id="Layer_1" xmlns="http://www.w3.org/2000/svg" version="1.1" viewBox="0 0 2500 2500">
  <!-- Generator: Adobe Illustrator 30.4.0, SVG Export Plug-In . SVG Version: 2.1.4 Build 226)  -->
  <defs>
    <style>
      .st0 {
        fill-rule: evenodd;
      }
    </style>
  </defs>
  <path class="st0" d="M2182,2283.8c6-20.6,17.4-39.1,34.4-55.8,25.2-24.5,55.8-38,91.7-38s66.4,13.5,92,38c16.7,16.7,28.1,35.2,33.7,55.8h-18.1c-5.3-16-14.6-30.6-28.1-43.4-21.3-22-49-32-79.6-32s-57.6,10-79.9,31.6c-12.3,12.3-21.5,27.2-27,43.7h-19.2.1Z"/>
  <path class="st0" d="M2260.5,2283.8v-41.2h53.3c19.5,0,33.1,4.3,42.3,12.1,8.5,7.1,12.4,16.7,12.4,28.1v1.1h-17v-.4c0-6.4-3.2-13.2-8.5-18.1-4.6-5.3-17.4-7.5-38-7.5h-26.7v25.9h-17.8Z"/>
  <path class="st0" d="M2182,2283.8c-3.2,11.2-4.7,22.8-4.6,34.5,0,35.5,13.2,66.1,39.1,91.6,25.2,24.9,55.8,37.7,91.7,37.7s66.4-12.8,92-37.7c25.6-25.6,38-56.1,38-91.6s-1.4-23.5-4.3-34.5h-18.1c3.5,10.6,5.3,22.4,5.3,34.5,0,31.3-12.1,57.9-34.1,78.5-21.7,22.4-48.3,32.7-78.9,32.7s-57.6-10.3-79.9-32.7c-21.3-20.6-32.3-47.2-32.3-78.5s1.8-23.8,5.3-34.5h-19.2Z"/>
  <g>
    <polygon points="1718 1089 1718 1089 1717.8 1089 1718 1089"/>
    <path d="M2350.4,2342.1c-4.6-5.3-8.2-10.3-10.3-12.4-2.8-1.8-6.8-3.5-12.4-5,12.8-2.8,22.4-6.4,28.4-12.1,8.2-7.5,12.1-17.1,12.4-28.8h-17c0,5-2.8,9.9-5,14.6-2.9,3.9-7.1,6.8-11.4,8.5-6.4,1.8-20.3,2.8-39.4,2.8h-17.4v-25.9h-17.8v99.1h17.8v-58.3h11.7c11.7,0,22,2.1,27.4,5,4.6,3.5,13.1,13.9,22.7,31.6l13.2,21.7h21.3l-13.5-24.1c-2.2-3.9-6.1-9.2-10.7-16.7Z"/>
    <path d="M2362,1309.8l101.2-63.2-109-77.4,102-79.2-110.1-62.2,79.6-92-132.2-44.8,76-108.3-116.5-28.1,46.9-110.1-124-13.2,40.1-121.5-128.6,7.8,21.7-122.6-121.5,24.9.4-130.7-115.5,33.4-12.4-121.9-115.8,54.3-28.1-123.3-108,72.8-43.3-120.4-93.8,72.5-59-109.4-90.6,98.8-69.3-109.1-70,111.9-87.7-96.3-56.8,99.5h-.3c0-.1-102.3-73.3-102.3-73.3l-40.1,125.8-107.3-76.4-21.3,124-121.9-56.8-8.5,124-124.7-30.5,10.6,122.6-132.2-26.7,25.6,127.9-128.3-5,41.2,123.3-122.2,8.2,43.3,116.5-125.4,24.1,79.6,120.4-124.7,35.5,77.1,98.1-104.8,51.2,91.3,98.1-105.5,69.3,113.7,73.5-103,82.1,110.1,61.8-78.9,93.8,123.6,45.8-72.8,106.9,130,23.4-53.6,114.4,119,14.2-37.7,119.4,133.6-3.9-25.9,119.7,127.5-16.4-5.7,121.2,126.5-36.2,6.4,122.2,115.8-43.7,21.3,114.7,124.4-70,34.8,124.7,100.9-77.1,48.3,101.6,97-92,59.7,110.9,86.7-115.8,78.5,99.8,62.9-107.3,84.6,75,53.7-125.1,98.1,80.6,33.4-132.9,110.1,56.5,16.7-126.1,109.4,37.7,1.8-130.7,126.8,28.4-17-131.5,115.5,9.6-34.4-130,121.1-2.9-45.5-119.7,120.8-21.3-64.3-113.3,114.8-30.9-88.8-112.6,112.6-49-87.4-92ZM659.5,1575.5l-78.7-315.5-3.6-14.8h-1.7l-48.1,361.9-46.1,10.6h-.2c0,0-214-299.1-214-299.1l-1.9.6,5.3,14.5,78.7,315.5-51.7,12.5-97.4-393.5,73.8-16.8,215.7,306,48.1-369.5,73.8-17.4,97.5,393.2-49.4,11.9ZM1029.6,1487.2l-63.2-93.5-166.7,39.5-13.5,111.6-53.3,13.2,34.2-275.7h0,0s4-32.3,4-32.3h0l15.1-120.5,49.4-11.9,91.9,132.4h0l22.4,32.3h-56.6l-21.4-32.3h0l-48.4-73.1-7,73.1h0l-3,32.3h-46.4s46.4,0,46.4,0l-9.9,105.4,138.7-31.2-49-74.1h56.6l132.7,191.3-53,13.5ZM1465.9,1009l87.6,352.3-49.4,11.2-87.9-352.1-125.3,30.4v.2s-128.1,30.3-128.1,30.3l87.6,353-50.1,11.9-87.6-353h0s-132.1,31.6-132.1,31.6l-9.5-40.1,303.3-72.2-.2-.9,310.2-73.8,10.2,40.9-128.8,30.3ZM1721.6,1321.1l-97.8-392.9,286.5-67.5,9.5,39.5-234.5,56.4,32.6,132.3,212.6-51.3,9.9,40.5-212.4,51.7,34.9,138.3,241.4-57,9.9,40.1-292.7,69.8ZM2047.3,1243.4l-97.8-392.2,51.7-12.5,87.2,352.1,204.1-48.4h0c0-.1,0,0,0,0h0s9.9,40.8,9.9,40.8l-255.2,60.3Z"/>
  </g>
</svg>