<?xml version="1.0" encoding="UTF-8"?>
<svg id="Layer_1" xmlns="http://www.w3.org/2000/svg" version="1.1" viewBox="0 0 3812 2500">
  <!-- Generator: Adobe Illustrator 30.4.0, SVG Export Plug-In . SVG Version: 2.1.4 Build 226)  -->
  <defs>
    <style>
      .st0 {
        fill: #fff;
        fill-rule: evenodd;
      }
    </style>
  </defs>
  <path class="st0" d="M638.2,1187l197.7-950.1h302.1v35.9h-24.7c-22.3,0-39.8,7.7-52.8,22.8-9.4,10.2-16.5,27.2-21.6,51.3-4.3,17.4-6.6,62.8-6.6,136.4v955.6c0,74.9,2,121.6,6.1,140.1,3.6,18.4,12.1,35.4,24.7,49.2,12.6,14.1,29.3,21.1,50.1,21.1h24.7v35.9h-389.4v-35.9h24.9c21.6,0,39.2-7.7,52.8-22.6,9.2-10,16.7-27.2,21.6-51.8,4.3-17.2,6.5-62.7,6.5-135.9V366.7l-278.6,1318.8h-14L274.2,375.7v1018.9c0,72,1.2,116.5,3.4,133,4.3,35.9,14.3,65.2,30.6,88,16.2,22.6,40.9,34.1,74.6,34.1v35.9H126.9v-35.9h8.9c16.5.7,32-4.6,46.1-15.8,14.1-11.2,25-26.4,32.7-45.3,7.8-18.9,13.5-45.5,16.9-79.7.7-8,1-45.1,1-111.4V483.5c0-74.9-1.9-121.6-6-140.1-3.7-18.4-12.4-35.2-24.9-49.2-12.8-14.1-29.8-21.3-50.6-21.3h-24.2v-35.9h302.7l208.4,950.1h.2ZM3059,272v1080.2c0,61.3,4.1,100.5,12.8,117.5,8.2,17,24.7,26.9,49.5,29.1v32h-275.8v-32c23.3-1.2,40.4-12.4,51.3-33.4,7.5-14.1,11.1-51.9,11.1-113.2V450.8c0-61-4.3-100.1-12.8-117.3-8.7-17-25-26.9-49.5-29.5v-32h213.5ZM2440.4,984.4v-31.8c0-77.8,16.3-151.7,46.5-204.3,21.1-36.9,55.3-55.8,79-55.8s66.4,6.3,92.6,91.6c11.1,35.6,28.9,102.5,28.9,200.2h-246.9l-.2.2ZM2748.1,729.3c-47.2-71-102.3-106.4-166-106.4s-143.9,42.4-200.6,126.9c-56.9,84.6-85.3,198.4-85.3,341.2s19.2,214.4,58.2,293c47.8,97.7,118.5,146.6,212,146.6s102.8-19.6,144.4-58.7c41.5-39.2,91.8-109.7,113.4-299l-127.2,1.4c-9.5,75.4-23.7,303.3-138.6,303.3s-120.4-302.2-124.3-416h390.1c-3.6-139.5-28.9-261.2-76.1-332.2h0ZM2080.3,1292.3c-31.5,84.3-64.7,140.3-99.8,140.3s-44.4-14.8-53.6-26.6c-18-23.2-41-65.6-51.4-117.3-10.6-51.9-15.8-131.8-15.8-239.9s4.9-149,14.3-196.7c9.5-47.5,27.1-69,41.9-87.9,9.2-12.1,41-30.1,56.4-30.1,42.6,0,78.5,20.9,108.1,107.1v451.1h0ZM1998.2,261.1v39.5c26.6,0,45,4.3,54.8,12.6,10.2,8.5,17.2,21.5,21.6,39,3.6,13.3,5.6,52.4,5.6,117.1v261c-23.3-40-45.5-68.1-66.4-84.1-20.3-15.8-45.3-24.2-71-24-41.7,0-80.7,18.6-116.8,55.8-36.3,37.3-64.7,92.3-85.3,165.2-20.6,73-30.8,155.5-30.8,247.6s16.5,212.7,49.7,291.8c41.7,97.7,98.2,146.4,169.4,146.4s53.3-9.4,75.6-28.3c22-18.9,47.2-54.7,75.6-107.3v135.5l210.3,1.4v-43.4c-22.1-2.4-37.6-8.3-46.7-18-9.2-9.7-15.3-24.5-18.4-44.4-2.4-12.1-3.6-111.7-3.6-177.6V260.9h-223.6l-.2.2ZM3651.9,839.3c-22.3-71.3-54.8-126.3-97.7-165.2-42.7-38.8-88.9-58.2-138.3-58.2-82.6,0-147.3,46.1-194.6,138.1-47.2,91.9-70.8,199.9-70.8,323.5s23.2,225.6,69.5,316.7c46.1,91.1,112,136.6,197.7,136.6s156-49.7,205.3-149.5c41.4-82.4,62-184.9,62-307.3s-11.1-163.1-33.2-234.6h.2ZM3515.5,1335.9c-23.5,85.1-56,127.5-97.7,127.5s-71.9-38.8-94-116.5c-22.1-77.6-33-167.7-33-269.9s11.2-197.5,33.7-276c22.5-78.5,53.3-117.8,92.6-117.8s45.3,16.7,65.7,49.7c20.4,33,35.9,80,46.5,140.8s15.8,127.5,15.8,200.1c0,104.4-9.7,191.9-29.5,262.1h-.2ZM1610,839.3c-22.1-71.3-54.7-126.3-97.6-165.2-42.7-38.8-88.9-58.2-138.3-58.2-82.6,0-147.5,46.1-194.6,138.1-47.2,91.9-70.8,199.9-70.8,323.5s23.2,225.6,69.5,316.7c46.1,91.1,112,136.6,197.7,136.6s155.8-49.7,205.3-149.5c41-82.4,62-184.9,62-307.3s-11.2-163.1-33.4-234.6h.2ZM1473.6,1335.9c-23.5,85.1-56,127.5-97.7,127.5s-72-38.8-94.2-116.5c-22-77.6-32.9-167.7-32.9-269.9s11.1-197.5,33.5-276c22.5-78.5,53.1-117.8,92.6-117.8s45.3,16.7,65.7,49.7c20.3,33,35.8,80,46.3,140.8s15.8,127.5,15.8,200.1c0,104.4-9.9,191.9-29.5,262.1h.2ZM1595.8,1903.7c-23.7,0-45.3,12.8-62.7,33.5v-28.8l-71.3-.5v14.6c7.3.9,12.8,2.9,15.8,6.1s5.3,8.3,6.1,15c.9,4.3,1.4,38,1.4,60.3v297s2,12.8-3.9,18.6c-7,6.8-18,5.4-18,5.4v13.6h97.9v-13.5c-9,0-15.3-1.5-18.7-4.4s-5.8-7.3-7.3-13.3c-1.2-4.6-1.9-17.7-1.9-39.7v-79.9c17.4,20.6,39,33.5,62.7,33.5,57,0,103.2-71.2,103.2-159s-46.1-159-103.2-159h0v.3ZM2734.4,1971.3c0-16,.2-40,.9-42.9.9-4.9,2.2-8.5,4.4-10.7,2.2-2.4,6-3.7,11.4-4.3v-10.6l-66.1.3v36.4c-19.8-21.6-44.4-35.2-71.3-35.2-63.5,0-115.1,71.2-115.1,158.9s51.4,158.9,115.1,158.9,51.6-13.5,71.3-35.2v24.9h65v-11.9s-8,1-12.8-3.9c-4.3-4.1-2.7-13.3-2.7-13.3v-211.5h0l-.2.2ZM1884.3,2198.6c-32.4,0-58.7-62.1-58.7-138.6s.3-5.3.3-8h170.4c-3.1-85.5-52.3-153.8-113.1-153.8s-113.4,72.4-113.4,161.6,50.9,161.6,113.4,161.6,103.9-59.9,111.9-138.1h-52.4c0,64.7-26.2,115.1-58.6,115.1h0l.2.2ZM1009.8,2198.6c-32.2,0-58.6-62.1-58.6-138.6s.3-5.3.3-8h170.4c-3.1-85.5-52.1-153.8-113.1-153.8s-113.4,72.4-113.4,161.6,50.7,161.6,113.4,161.6,103.9-59.9,111.9-138.1h-52.3c0,64.7-26.2,115.1-58.7,115.1h0v.2ZM1574.7,2181.9c-16,0-30.8-12.3-41.7-31.8v-179.8c10.9-19.6,25.7-31.8,41.7-31.8,34.2,0,62.1,54.5,62.1,121.7s-27.9,121.9-62.1,121.9v-.2ZM2627.9,2195.1c-40.7,0-73.9-61.1-73.9-136.4s33.2-136.4,73.9-136.4,43.2,19.6,56.9,49.7v173.2c-13.6,30.1-33.9,49.7-56.9,49.7v.2ZM2418.4,1822.2c0,21.3-13.1,38.5-29.3,38.5s-29.3-17.2-29.3-38.5,13.3-38.5,29.3-38.5,29.3,17.2,29.3,38.5ZM2412.6,1936.2v-20.4l-61.8-.3v10.6c5.3.5,9.2,2,11.4,4.3,2.2,2.4,3.6,6,4.3,10.7.7,2.9,1,27.1,1,43.1v211.5s1.5,9-2.6,13.3c-4.9,4.9-12.9,3.9-12.9,3.9v9.7h80.5v-9.5c-6.5,0-10.9-1-13.3-3.1-2.7-2.6-4.4-5.8-5.1-9.5-1-3.2-1.4-12.6-1.4-28.3v-235.7h0l-.2-.2ZM1353.4,1996.2h57.6s7.2-97.9-113.6-97.9-96,132.8-80.4,145.1c15.7,12.4,33.2,27.9,64.5,33.2,31.5,5.3,113.7,45.5,57.7,103-56,57.7-94.3-15.7-92.6-83.9h-59.4s0,117.1,101.3,125.8c0,0,124,19.1,124-96.2s-54.1-85.6-88.9-94.3c-36.3-8.9-78.8-19.2-59.6-87.4,13.3-47,99.6-38.5,89.2,52.6h.2ZM2184.3,2198.6c-32.4,0-58.6-62.1-58.6-138.6s.2-5.3.3-7.8h.9c2.2-96.5,31.7-130.8,57.4-130.8s47.7,40.5,55.5,130.8h56.7c-2.9-85.6-52.1-153.8-113.1-153.8s-113.2,72.4-113.2,161.6,50.7,161.6,113.2,161.6,103.9-59.9,111.9-138.1h-52.3c0,64.7-26.2,115.1-58.7,115.1h0ZM1884.3,1921.3c26.7,0,49.2,42.7,56.2,101h-112.4c7-58.2,29.3-101,56.2-101h0ZM1009.8,1921.3c26.9,0,49.4,42.7,56.4,101h-112.4c7-58.2,29.3-101,56-101h0ZM2897.4,1803.6v363.9c0,19.1,1.4,31.3,3.9,36.6s7.8,8.3,15.5,9.2v10h-86v-10c6.8-.2,13.1-4.3,16-10.4,2.4-4.4,3.6-16.2,3.6-35.2v-308.2c0-19.1-1.4-31.2-3.9-36.6-2.7-5.3-8-8.3-15.7-9.2v-9.9h66.6v-.2Z"/>
</svg>