<?xml version="1.0" encoding="UTF-8"?>
<svg id="Layer_1" xmlns="http://www.w3.org/2000/svg" version="1.1" viewBox="0 0 2500 1334.4">
  <!-- Generator: Adobe Illustrator 30.4.0, SVG Export Plug-In . SVG Version: 2.1.4 Build 226)  -->
  <defs>
    <style>
      .st0 {
        fill-rule: evenodd;
      }
    </style>
  </defs>
  <path class="st0" d="M554.3,344.2c-128.2,150.5-251,337.1-252.3,476.6-.5,52.5,16.3,98.3,56.5,133,57.8,50,121.6,67.6,185,67.7,92.7,0,184.7-37.3,256.8-66.1,121.4-48.5,1462.9-631.1,1462.9-631.1,12.9-6.5,10.5-14.6-5.7-10.5-6.5,1.6-1460.4,395.6-1460.4,395.6-27.5,7.8-56,11.9-84.6,12.1-111.7.7-211.2-61.4-210.4-192.1.3-51.1,16-112.8,52.2-185.4h0v.2Z"/>
</svg>