<?xml version="1.0" encoding="UTF-8"?>
<svg id="Layer_1" xmlns="http://www.w3.org/2000/svg" version="1.1" viewBox="0 0 2500 1255">
  <!-- Generator: Adobe Illustrator 30.4.0, SVG Export Plug-In . SVG Version: 2.1.4 Build 226)  -->
  <defs>
    <style>
      .st0 {
        fill: #12100b;
      }

      .st1 {
        fill: #00a0dd;
      }
    </style>
  </defs>
  <path class="st0" d="M716.5,706.6h39.9v-175.7h-39.9v175.7ZM600.5,530.9h-39.8v175.7h115.7v-31.8h-75.9v-143.9ZM1098.4,625.5l-85.1-96.5h-5.3v177.8h38.4v-64.7c.1-9.9-.3-19.9-1.3-29.8,0,0,6.8,10.4,13.6,18.6l37,45.6h5.6l36.8-45.6c6.6-8.2,13.4-18.5,13.4-18.5-1,9.9-1.4,19.8-1.3,29.8v64.7h38.4v-177.8h-5.3l-85.1,96.5ZM1321.4,601.2l-9.1-3.9c-11.8-5-22.3-10.6-22.3-21.5s5-14.6,15.6-14.6c10.2.3,19.5,6.2,24,15.3l29.9-17.8c-12.6-21.9-32.9-30.6-54.8-30.6-32.3,0-52.5,21.2-53.1,48.4-.6,30.2,20.9,43.8,47,54.9l9.1,3.9c16.6,7.3,24.4,12.7,24.1,23.7-.3,10.4-7.3,17.9-22.2,17.9s-28.4-9.8-34.7-23.3l-31.5,18c8.5,19.8,32.2,38,66,38s61.1-17.7,62.2-50.3c1-28.1-17.8-45.5-50.2-58.4M115.4,529.5l-64.7,140.2,13.5,36.9h6.3l39-88c3.5-7.1,6.4-14.5,8.7-22.1,2.2,7.5,5.1,14.8,8.5,21.9l39.2,88.2h6.3l13.5-36.9-64.7-140.2h-5.7ZM41,530.9H0l46.5,127.4,21.9-47.8-27.4-79.6ZM167.7,610.1l22.2,48.2,46.7-127.4h-41.4l-27.4,79.2ZM289.7,706.6h39.8v-175.7h-39.8v175.7ZM443.5,530.9h-39.8v175.7h115.7v-31.8h-75.9v-143.9ZM883,647.7h-19.9l15.1-38.8c2.8-7.3,4.7-13.5,4.7-13.5,0,0,1.9,6.2,4.7,13.5l15.1,38.6-19.8.2ZM885.8,529.1h-5.7l-78.4,177.2h38.3l11.4-28.1h63.1l11.4,28.1h38.3l-78.4-177.2Z"/>
  <path class="st1" d="M2014.5,530.9h39.9v175.7h-39.9v-175.7ZM1936,647.8l-1,1.6c-11.2,17.2-24,24.5-42.8,24.5-29.2,0-50.3-23.1-50.3-54.8s20.7-54.3,50.3-54.3c16.3-.5,31.6,7.7,40.2,21.6l1,1.7,30.1-21.4-.9-1.5c-15.5-24.3-38.4-36.1-70.3-36.1-51.5,0-90.4,38.7-90.4,89.9s38.8,90.1,90.4,90.1,57.1-13.4,73.4-38.8l.9-1.5-30.6-21ZM2498.5,612.8v-1.7h-84v34.5h42.5c-4.5,14.6-19.8,28.5-45.2,28.5s-51.1-23.1-51.1-55.1,20.9-54.3,50.8-54.3c16.7-.6,32.3,8.1,40.5,22.6l1,1.7,30.9-21.9-.9-1.5c-15.9-24.6-39.2-36.5-71.4-36.5-51.8,0-90.9,38.7-90.9,89.9s38.4,90.1,91.3,90.1,49.3-8.3,64.3-24.1c16.1-16.9,23.8-41.8,22.3-72.2M2233.4,531.1v73.9c0,7.7-.4,15,.3,21.7-4.7-5.4-9.8-10.5-15.2-15.2l-86.8-81.5-.5-.5h-6.1v177.2h36.8v-73.9c.3-7.3.2-14.6-.3-21.9,4.7,5.5,9.8,10.6,15.2,15.4l86.9,81.4.5.5h6.1v-177.2h-36.9ZM1541.4,589.4c0,16.4-8.5,24-26.8,24h-25.6v-47.7h25.6c18.3,0,26.8,7.6,26.8,23.7M1548.7,640.5c21.2-9.1,32.9-27.2,32.9-51.1,0-36.5-24.6-58.4-65.7-58.4h-65.7v175.7h39.1v-59.7h19.6l34.9,59.7h44.8l-39.8-66.1ZM1697.5,647.7h-19.8l15.1-38.8c2.9-7.3,4.7-13.5,4.7-13.5,0,0,1.9,6.2,4.7,13.5l15.1,38.6-19.9.2ZM1700.4,529.1h-5.7l-78.4,177.2h38.3l11.4-28h63.1l11.5,28.1h38.3l-78.4-177.3Z"/>
</svg>